<?xml version="1.0" encoding="utf-8"?>
<!-- Generator: Adobe Illustrator 26.1.0, SVG Export Plug-In . SVG Version: 6.00 Build 0)  -->
<svg version="1.1" id="Layer_1" xmlns="http://www.w3.org/2000/svg" xmlns:xlink="http://www.w3.org/1999/xlink" x="0px" y="0px"
	 viewBox="0 0 112.7 60" style="enable-background:new 0 0 112.7 60;" xml:space="preserve">
<style type="text/css">
	.st0{fill:#333230;}
</style>
<g>
	<path class="st0" d="M78.7,27.3c0,0.1,0,0.3,0,0.4c-0.6,0.8-1.4,1.6-2,2.3c-0.5,0.1-0.9,0-1-0.5c-0.2-0.6-0.5-1.1-1-1.4
		c-0.1,0-0.2,0-0.2,0c-1.7,1.2-3.3,2.2-4.8,3.2c-1,0.6-1.9,1.3-2.9,2c1.6,0.2,3.1-0.2,4.7,1c-0.9-0.1-1.4,0.1-2-0.2
		c-0.6-0.3-1.5-0.1-2.2-0.1c-0.8,0.1-1.4,0.4-2,0.7s-1.3,0.7-1.9,1c0,1,0.9,0.7,1.2,0.9c0.6,0.3,1.5,0.3,2.2,0.5c0,0.2,0,0.4,0,0.8
		c-0.4,0-0.9,0-1.3,0.1c-0.1,0.1-0.3,0.2-0.4,0.3c0,0.1,0,0.2,0.1,0.2c1.2,0.4,2.2,1.2,3.5,1.5c1.2,0.4,2.4,0.3,3.4-0.5
		c0.1-0.2,0.4-0.3,0.5-0.5c0.4,0,0.9,0,1.2,0c0,0.2,0,0.4,0,0.6c-0.9,0.8-2,0.9-3,1.3c0.6,0.4,0.6,0.4,1.4,0.5
		c0.2,0,0.5,0.2,0.9,0.3c0.5,0.1,0.9,0.2,1.4,0.3s1-0.2,1.4,0.2c0.4-0.3,0.9-0.2,1.3-0.2c0.9-0.2,1.9-0.3,2.6-0.5
		c0.8-0.3,1.4-0.9,1.8-1.7c0.1-0.3,0.4-0.6,0.5-1c0-0.7,0-1.4,0-2.1c-1-1.4-2.2-2.2-4.1-1.3c-0.1,0.6-0.3,1.3-0.4,2
		c0.5,0.3,0.9,0.5,1.1,0.7c0.4-0.2,0.6-0.3,0.9-0.6c0.3-0.2,0.4-0.4,0.6-0.9c0.1,0.5,0.1,0.8,0.1,1.1c-0.6,0.3-1.3,0.6-1.9,0.9
		c-0.6-0.6-1.1-1.1-1.7-1.8c0.1-0.4,0.3-0.9,0.4-1.5c0.3-0.3,0.6-0.6,0.9-0.9c0.8-0.1,1.4-0.3,2.1-0.4c0.1-0.7-0.1-1.5,0.4-2.1
		c0.5,0,1,0,1.5,0c0.4,0.9-0.8,1.2-0.8,2.2c0.1,0.2,0.4,0.6,0.6,1c0.6,0.8,0.7,1.3,0.7,2.5c0,1.3-0.3,2.3-1.3,3.1
		c-0.3,1.1-1.3,1.1-2,1.6c0.7,0,1.5-0.1,2.1,0c0.7,0.1,1.4-0.2,2.1-0.3s1.4-0.8,2-1.2c0.3-0.9,1.3-1.2,1.7-2.1
		c0.1-0.3,0.6-0.4,1.1-0.7c0,0.5,0,0.8,0,1.2c-0.4,0.4-0.9,0.8-1.3,1.2c0,0.3,0,0.5,0,0.7c0.1,0,0.4,0.1,0.4,0
		c1.4-0.8,2.9-1.2,4.2-2.3c1.3-1.2,1.9-2.6,1.8-4.3c0-0.3,0-0.6,0-1.2c-0.5-0.6-1.1-1.3-1.7-1.9c-0.6,0-1.1,0-1.7,0
		c-2,1.6-1.8,1.8-1.2,3.5c0.2,0,0.5,0,0.9,0c0.1-0.2,0.4-0.5,0.8-1c0,0.1,0,0,0-0.3c0.1,0,0.3-0.1,0.5-0.2c0,0.4,0.1,0.7,0.1,1
		c-0.4,0.3-0.6,0.6-1,1c-0.4,0-0.9,0-1.5,0c-0.1-0.2-0.2-0.4-0.4-0.7c-0.7-0.7-0.3-1.5-0.1-2.5c0.6-0.5,1.4-1.2,2.2-1.8
		c-0.5-1-0.3-1.9,0.2-2.8c0.4,0,0.7,0,1.4,0c-0.1,0.3-0.3,0.4-0.3,0.6c0,0.1-0.1,0.1-0.3,0.2c-0.6,0.6-1,1.2-0.4,2.1
		c0.9,0.4,1.7,0.8,2.6,1.3c1.1,1.9,0.5,3.8,0.2,5.8c0.6-0.4,1.3-0.6,1.6-1c1.3-1.2,3-1.5,4.7-2.2c0.5-0.2,1.1,0,1.6-0.1
		c1.1-0.2,1.3-1.4,2-1.9c0.4,0,0.7,0,1.1,0c0.6,0.7,1.2,1.4,2,1.9c1.5,1.2,2.7,2.7,4,4c1,0.2,1,1.5,2,1.8c0.1,0,0.1,0.4,0.2,0.7
		c-0.2-0.1-0.5-0.2-0.7-0.3c-0.8,0.3-1.5,0.4-2.4-0.1c-0.2-0.1-0.7,0-1.1-0.1c-0.4-0.1-0.6-0.2-1-0.3c-1-0.3-1.9-0.4-2.9-0.8
		c-1.1-0.4-2.5-0.6-3.7-0.9c-0.4-0.3-0.4-0.8-0.1-1.3c0.1-0.3,0.3-0.6,0.5-0.9c0.3-0.4,0.4-0.8,0.3-1.3c-1-0.2-1.8,0.1-2.6,0.4
		s-1.8,0.7-2.5,1c-0.9,0.5-1.8,1.1-2.7,1.6c-0.1,0.1-0.1,0.2-0.1,0.4c2.1,0.4,3,0.9,4.2,2.1c0.1,0.8,0.2,1.6,0.2,2.4
		c-0.5,0.5-0.9,0.9-1.3,1.3c-0.4,0.3-0.8,0.6-1.3,0.6c-0.5-0.1-1-0.3-1.5-0.5c-0.2-0.1-0.4-0.3-0.5-0.5c0-0.5,0-0.9,0-1.4
		c0.3-0.1,0.4-0.3,0.8-0.5c0,0.5,0.1,0.9,0.1,1.5c0.1,0.1,0.4,0.3,0.6,0.5c0.4,0.3,0.9,0.1,1.3-0.1c0.5-0.2,0.8-0.6,0.9-1.1
		c0.1-0.3,0.1-0.7,0.1-1c-0.1-0.4-0.2-0.7-0.5-1c-0.2-0.3-0.5-0.7-1.1-0.7c-0.4,0-0.9-0.2-1.1-0.5c-0.5-0.3-0.8,0.3-1.3,0.2
		c-0.4,0-0.6,0-1,0c-0.6,0.3-1.1,0.8-1.9,0.8c-0.2,0-0.5,0.1-0.8,0.3c-0.9,0.9-2.1,1-3.3,1.4c-0.4,0.2-1,0.1-1.5,0.1
		c-0.3,0.1-0.5,0.3-0.8,0.4c0.5,0.5,0.9,1,1.3,1.2c0.6,0.3,0.7,0.9,1.2,1.3c-0.3,0.2-0.4,0.3-0.5,0.5c-0.1,0.2-0.3,0.3-0.4,0.4
		c-0.8,0.2-1.1-0.3-1.2-0.7c-0.2-0.9-0.8-1.3-1.6-1.6c-0.1-0.1-0.2-0.3-0.5-0.4c-0.4,0-0.9,0-1.4,0c-0.7-0.1-1.5-0.2-2.2-0.4
		c-0.7,0-1.5,0.1-2.2-0.1c-1.7-0.4-3.4-0.9-5.1-1.3c-0.9-0.3-1.7-0.5-2.7-0.9c-1.7-0.6-3.3-1.6-4.8-2.5c-0.1-0.1-0.2-0.1-0.4-0.2
		c-0.5,0.1-0.9,0.3-1.3,0.4c0,0.2,0,0.4,0,0.6c1.7,1.7,3.5,3.4,5.6,4.7c1.4,0.8,2.8,1.5,4.5,1.9c1.1,0.3,2.2,0.3,3.4,0.4
		c0.5,0.3,0.5,0.8,0.3,1.3c-0.8,0.1-1.6,0-2.4-0.3c-0.6-0.2-1.1-0.3-1.7-0.4c-0.5-0.2-1.1-0.5-1.6-0.7c-1.2-0.4-2.5-1.1-3.5-1.9
		c-1.7-1.3-3.3-2.7-4.8-4.4c-0.2-0.2-0.4-0.5-0.6-0.8c-0.2,0-0.6,0-1.1,0c0,0.2,0,0.5,0.1,0.7c0.7,1.2,1.4,2.3,2.3,3.5
		c0.1,0.3,0.4,0.5,0.5,0.8c0.8,1.3,2.1,2.2,3.3,3.1c1.1,0.8,2.3,1.5,3.4,2.3c0.7,0.5,1.6,0.6,2.6,1c0,0.2,0,0.4,0,0.5
		c0,0.2-0.1,0.3-0.4,0.5c-0.4-0.1-0.6,0.1-1.1-0.2c-0.9-0.6-2-1-3-1.6c-0.9-0.5-1.6-1.2-2.5-1.8c-1.4-0.9-2.3-2.2-3.4-3.3
		c-0.2,0-0.4,0-0.5,0L62,44.5c0,0.1,0.1,0.1,0.1,0.2c0.8,1.9,1.7,3.9,3.1,5.5c1.2,1.3,2.8,2.6,4.7,3.3c0,0.1,0,0.2,0,0.3
		c-0.4,0.2-0.6,0.4-1,0.5c0,0.1,0.1,0.1,0.1,0.2c-0.2,0-0.5,0-0.9,0c-0.1-0.1-0.1-0.2-0.2-0.3c-1.1-1.1-2.2-2.3-3.2-3.4
		c-0.4-0.4-0.7-0.8-1-1.4c-0.2-0.5-0.9-0.8-0.7-1.5c0-0.2-0.4-0.5-0.5-0.7c-0.5-0.8-0.8-1.8-1.1-2.7c-0.1-0.6-0.4-0.9-0.7-1.1
		c-0.4-0.3-0.9-0.5-1.4-0.8c-0.1,0.1-0.3,0.2-0.4,0.4c0.4,0.9,0.7,1.9,0.8,2.9c0.2,0.9,0.5,1.7,0.7,2.6c0,0.2,0.1,0.3,0.1,0.5
		c0.5,1.2,0.9,2.5,1.7,3.5c0.7,0.9,1,2.1,2.2,2.8c0.2,0.6,1,0.8,1.3,1.4c-0.1,0.2-0.3,0.6-0.4,0.9c-0.5,0-0.9,0-1.2,0
		c-0.2-0.3-0.5-0.6-0.9-1c0-0.1,0-0.2,0-0.4c-1.7-1.8-2.5-4.2-3.2-6.4c-0.8-2.2-1.4-4.6-1.5-7.1c-0.5-0.1-0.8,0.2-0.8,0.5
		c0,0.4-0.1,0.8-0.3,1.1c-0.5,0.9,0.1,1.7-0.1,2.5c0.5,0.5,0.2,1.2,0.5,1.9c0.4,0.7,0.2,1.6,0.3,2.5c0.1,0.6,0.2,1.2,0.3,1.9
		c0.7,0.8,0.3,2.1,1.2,2.9c0.2,1.1,0.8,2,1.6,2.7c0,0.2,0,0.4,0,0.6c-0.5,0.1-1,0.3-1.5,0.4c-0.4-0.9-0.8-1.7-1.1-2.6
		c-0.2-0.9-0.3-1.8-0.8-2.6c0.1-0.9-0.2-1.9-0.4-2.8c-0.1-0.3-0.2-0.6-0.2-0.9c0-0.5,0-0.9,0-1.4c0-0.7,0-1.4,0-2
		c-0.1-0.2-0.2-0.3-0.5-0.5c-0.1,0.7-0.3,1.3-0.5,2.1c-0.1-0.1-0.4-0.2-0.4-0.3c-0.1-0.3-0.2-0.6-0.2-0.8c0-0.3,0-0.5,0-0.8
		c-0.2,0-0.2,0-0.4,0c0,0.1-0.1,0.1-0.1,0.2c0,0.6,0,1.3,0,1.9c0,0.5,0,1-0.3,1.5c-0.3,0.4,0.1,0.9-0.3,1.4
		c-0.3,0.5,0.1,1.2-0.4,1.8c0.1,1.3-0.6,2.4-1,3.5c-0.3,0.9-0.5,1.8-0.7,2.8c-0.6,0.2-1-0.1-1.6-0.4c0.1-0.2,0.1-0.5,0.3-0.7
		c0.7-1.2,1.2-2.5,1.6-3.8c0.4-1.1,0.6-2.4,1.1-3.4c-0.5-0.8,0.3-1.5,0.1-2.2c0.5-0.7,0-1.5,0.3-2.2c0.3-0.5,0.3-1,0.3-1.5
		c0-0.6,0-1.1,0-1.6c-0.2-0.5-0.5-0.9-0.7-1.4c-0.1,0.3-0.4,0.5-0.4,0.8c-0.5,1.8-0.6,3.7-1.5,5.5c-0.1,0.3,0,0.7-0.1,1
		c-0.9,2.5-2.1,4.8-3.3,7.1c-0.3,0.5-0.6,1-1,1.5c-0.6-0.1-1.4-0.2-1.5-1.1c0.1-0.1,0.1-0.2,0.1-0.3c1.4-1.2,2.4-2.5,3.3-4.1
		c0.4-0.8,1-1.6,1.1-2.6c0-0.1,0-0.3,0.1-0.4c0.9-1.2,1.1-2.6,1.5-4c0.3-1,0.9-2,0.7-3.2c-0.2,0-0.4,0-0.7,0
		c-0.5,1.2-1.1,2.4-1.7,3.6c-0.8,1.7-1.8,3.3-3,4.7c-1,1.3-2.2,2.5-3.6,3.4c-0.4,0.3-0.8,0.7-1,1c-0.4,0-0.6,0-1,0
		c0-0.3,0-0.6,0-1.1c0.5-0.3,1-0.6,1.5-0.9c0.5-0.3,1.7-1.2,2-1.7c0.5-0.6,1-1.2,1.7-1.8c0.9-0.9,1.3-2.1,2.1-3
		c0.5-0.7,0.8-1.4,1.3-2.1c0.1-0.2,0.1-0.5,0.3-0.9c-0.4,0.1-0.8,0.2-1,0.3c-0.3,0.1-0.4,0.2-0.5,0.3c-0.6,0.4-1.1,0.8-1.5,1.4
		c-0.8,1.2-1.7,2.3-2.7,3.1c-0.6,0.6-1.4,1-2.2,1.5c-0.4,0.3-0.8,0.6-1.1,0.8c-0.9,0.6-2,0.6-2.8,1.3c-0.1,0.1-0.2,0-0.5,0
		c0-0.4,0-0.9,0-1.3c1.4-0.6,2.8-0.8,4.2-1.6c0.5-0.3,0.9-0.5,1.3-0.9s0.9-0.6,1.3-1c0.6-0.7,1.3-1.4,1.9-2.1
		c0.6-0.8,1.2-1.7,1.7-2.6c0.5-0.9,1.2-1.7,1.6-2.5c0.3-0.4,0.3-1,0.5-1.5c-0.2,0-0.5,0-0.7,0c-0.5,0.5-1.3,1.1-1.5,1.9
		c0,0.2-0.3,0.3-0.3,0.4c-0.5,0.6-0.9,1.3-1.5,1.7c-0.6,0.4-1,1-1.7,1.4c-0.8,0.5-1.5,1-2.3,1.5c-1.3,0.7-2.5,1.3-3.8,1.7
		c-1.1,0.4-2.4,0.4-3.6,0.6c-0.1-0.4-0.4-0.7-0.5-1c0.5-0.3,0.9-0.5,1.5-0.7c0.4,0,1,0,1.5,0c0.9,0,1.8-0.3,2.5-0.5
		c1.5-0.6,2.9-1.2,4.3-2.1c0.1-0.1,0.4-0.1,0.5-0.3c1.1-1.1,2.2-2.1,3.3-3.1c0.3-0.3,0.5-0.9,0.5-1.4c-0.1-0.1-0.4-0.1-0.5-0.2
		l-0.1-0.1c0,0-0.1,0-0.1,0.1c-0.9,0.6-1.8,1.1-2.5,1.7c-0.6,0.6-1.5,0.9-2.3,1.4c-2.2,1.4-4.5,2-6.9,2.8c-0.5,0.2-1.1,0.1-1.6,0.3
		c-1,0.3-2,0.2-3,0.2c-1.8,0.3-3.5,0.7-4.6,2.4c-0.1,0.2-0.4,0.3-0.5,0.5c-0.4,0-0.7,0-1.2,0c-0.1-0.2-0.2-0.5-0.4-0.8
		c0.5-0.6,0.9-1.2,1.4-1.6c0.5-0.4,1.3-0.6,1.8-1c-1-0.3-2-0.3-3-0.5c-0.9-0.1-1.9-0.4-2.6-1s-1.6-0.7-2.5-1
		c-0.6-0.2-1.2-0.2-1.7-0.3c-1.5-0.1-2.8,0.2-3.5,1.3c-0.1,0.4-0.3,0.7-0.4,1.1c0.1,0.5,0.3,1.2,0.5,1.8c0.5,0.2,1,0.3,1.5,0.5
		c0.5-0.3,1.3-0.5,1.3-1.3c-0.4-0.4-0.6-0.8-1.1-1.3c0.5,0,0.9,0,1.3-0.1c0.1,0.2,0.4,0.5,0.6,0.8c0.1,0.6,0.1,1.3-0.5,2
		c-0.8,0.1-1.4,1.3-2.4,0.3c-1.4,0.2-1-1.2-1.7-1.8c0.1-0.9-0.2-1.9,0.4-2.8c0.3-0.1,0.5-0.2,0.6-0.4c0.8-0.9,1.6-1.1,2.8-1
		c0.7,0,1.5,0,2.5,0.1c-0.2-0.3-0.2-0.5-0.5-0.5c-0.6-0.4-1.2-0.6-1.7-1c-0.5-0.3-1-0.6-1.6-0.7c-0.9-0.2-1.6-0.8-2.5-0.9
		c-0.2-0.4-0.6-0.2-1-0.2c-0.9,0-1.7,0-2.7-0.1c0.1,0.3,0.2,0.5,0.4,0.6c0.6,0.6,1.1,1.2,1.8,1.8c-1,0.9-2.2,1.4-3.4,1.3
		c0-0.2-0.1-0.3-0.1-0.3l0-0.1c0.7,0.1,1-0.8,1.9-0.7c0-0.3,0-0.6,0-0.9c-1.5-1-1.8-2.9-3.5-4.1c0,0-0.2,0-0.6,0
		c-2.3,2-3.7,4.6-5.8,6.9c0.4,0,0.6,0,0.7,0c0.3-0.3,0.4-0.4,0.6-0.8c0.1,0.3,0.1,0.5,0.2,0.7c0.2,0,0.4,0,0.7,0
		c0.1-0.1,0.3-0.3,0.5-0.5c0.4,0,0.7,0,1,0c0.5-0.3,0.9-0.5,1.4-0.7c0-0.1,0.1-0.3,0.1-0.5c0.6,0.5,1.2,0.5,2-0.1c0,0.5,0,0.8,0,1.2
		c-0.4,0-0.7,0-1.2,0c0,0.1,0,0.1,0,0.2C6.4,42.7,5.7,43,5,43.2c-1.1,0.3-2.4,0.5-3.5,0.9c-0.6,0.3-0.9,0.2-1.2-0.2
		c0-0.4,0-0.8,0-1.2c1-0.5,1.3-1.5,1.8-2.4c0.8-1.4,1.8-2.6,2.8-3.7c0.4-0.4,0.9-0.9,1-1.4c0.3-0.5,0.6-0.5,0.9-0.8
		c0.7,0.2,0.9,1,1.2,1.4c0.5,0.4,0.9,1,1.5,1.6c0.7,0,1.6-0.4,2.6-0.2c0.9,0.1,1.7,0.2,2.7,0.6c0.9,0.3,1.6,0.8,2.6,1.3
		c0-0.4,0-0.8-0.1-1c-0.5-0.9-0.1-1.8,0.2-2.7c0.3-0.7,0.9-1.3,1.7-1.7c0.5-0.2,1-0.5,1.5-0.8c0.3-0.5,0.6-1.1-0.2-1.8
		c-0.1,0-0.4-0.2-0.7-0.3c-0.2-0.6,0.3-0.9,0.7-1.3c0.4,0,0.7,0,1.1,0c0.4,0.4,0.7,0.8,1.1,1.2c0.1,0.4-0.1,0.9-0.2,1.2
		c0,0.6-0.5,0.7-0.7,1.3c0.7,0.3,1.5,0.7,1.8,1.4c0.2,0.6,0.2,1.3,0.3,1.7c-0.5,1.1-1.2,1.8-2.4,1.6c-0.2-0.3-0.6-0.7-1-1.1
		c0.9-0.8,1.1,0.7,1.9,0.4c0.1-0.3,0.4-0.5,0.5-0.8c0.4-0.6,0-1.2-0.1-1.7c-1-0.9-2-0.5-3-0.7c-0.4,0.2-0.8,0.4-1.3,0.7
		c-0.1,0.2-0.4,0.5-0.6,0.9c-0.2,1.5-0.2,3.1,1.4,4.5c0.7,0.2,1.5,1.2,2.6,1.7c1,0.4,2,1.1,3,1.5c0-0.1,0.1-0.2,0.1-0.2
		c-0.1-0.2-0.2-0.3-0.4-0.5l-0.1,0.1c-0.2-0.5-0.5-1.1-0.7-1.6c0.6-0.8,0.6-0.8,1.4-0.2c0,0.3,0,0.7,0,1c0.6,0.8,1.1,1.7,2.3,2
		c1.7,0.4,3.5,0.2,5.2,0.4c0-0.2,0.1-0.3,0.1-0.4c-0.7-0.3-1.5-0.5-2.2-0.9c-0.4-0.3-0.9-0.5-1.2-0.9c-0.4-0.3-0.5-0.8-0.8-1.2
		c0-0.9-0.8-1.7-0.4-2.7c0.5-1,0.9-2,1.9-2.6c0-0.3,0-0.6,0-0.9c-0.5-0.3-0.9-0.7-1.5-1.1c0.5-0.6,0.8-1.2,1.5-1.2
		c1,0.7,1.3,1.6,1.3,2.8c1-0.1,1.9,0.2,2.7,0.9c0.9,0.7,1.3,2.3,0.7,3.2c-0.3,0.3-0.6,0.5-1,0.7c-0.4,0-0.9,0-1.2,0
		c-0.2-0.2-0.6-0.4-1-0.6c0-0.4,0-0.9,0-1.3c0.1,0,0.2,0,0.2,0c0.4,0.8,0.4,0.8,1.2,1.4c0.3-0.1,0.5-0.2,0.8-0.4
		c0.7-1.3,0.8-1.4-1.2-3c-0.6,0.1-1.2-0.1-2,0.2c-0.5,0.2-0.9,0.4-1.1,0.9c-0.3,0.5-0.6,1-0.5,1.7c0,0.1-0.1,0.2-0.1,0.2
		c0.1,0.3,0.1,0.5,0.2,0.8c0.1,0.8,0.8,1.8,1.6,2.3c1.8,1.3,4,1.6,6.2,1.3c1.6-0.2,3.1-0.7,4.7-1.6c-0.7-0.4-1.6,0.1-2.2-0.5
		c-0.9,0.3-1.1-0.8-2-0.5c0-0.4,0-0.7,0-1.1c0.4-0.1,0.8-0.3,1.1-0.4c0.6,0.7,1.1,1.2,1.6,1.7c0.9,0,1.5,0,2,0
		c0.3-0.2,0.5-0.5,0.9-0.5c1.2,0,1.9-1.1,2.9-1.4c0-0.3,0-0.5,0-0.8c-0.4,0-0.9,0-1.1,0c-0.2-0.2-0.4-0.3-0.6-0.5
		c0.8-0.3,1.4-0.7,2.1-0.8c0.6-0.2,1.1-0.5,1.6-1c-0.6-0.3-1.2-0.6-1.7-1c-0.5-0.3-1.1-0.7-1.6-1.1c-2,0-2.6,0.2-3.4,1.5
		c-0.1,0-0.4,0-0.6,0c0-0.3,0-0.6-0.1-0.9c0.4-0.3,0.6-0.6,1-0.9c0.5-0.1,1-0.3,1.6-0.5c-0.8-1.1-2.1-1.4-3.1-2.1
		c-0.9-0.7-2-1.1-3.2-1.8c-0.1,0-0.4,0-0.7,0c-0.1,0.3-0.4,0.7-0.6,1.1s-0.4,0.8-0.6,1.1c-0.2,0-0.5,0-0.7,0c-0.5-0.6-1.1-1.3-1.6-2
		c-0.5-0.6-1.4-1-1.8-1.8c-0.5-0.8-1.1-1.4-1.7-2c-0.6-0.7-1.2-1.3-2-2c0.1-0.3,0.1-0.6,0.3-0.9c0.5,0,0.9,0,1.1,0
		c0.6,0.3,1.1,0.4,1.7,0.7c-0.3,0.2-0.5,0.4-0.8,0.6c0.5,1.1,1.1,2.1,2.2,2.7c0.1,0,0,0.3,0.1,0.3c0.4,0.3,0.6,0.9,1.1,1.2
		c0.4,0.3,0.6,0.9,1,1.4c0.2,0,0.7,0,1.4,0c0.4-0.1,0.4-0.2,0.1-0.3c-0.1-0.4-0.4-0.8-0.6-1.3c0.2,0,0.5,0,0.6,0
		c0.2,0.4,0.5,0.7,0.8,1.1c0.6-0.9,1.3-1.7,1.9-2.6c-0.1-0.2-0.1-0.4-0.2-0.7c-1-0.3-2-0.4-2.9-1c-0.9-0.4-1.9-0.6-2.9-0.9
		c-0.1-0.6,0-1.1-0.5-1.6c-0.5-0.4-0.6-1.4-0.6-2.4c0.1-0.1,0.4-0.3,0.6-0.5c0.3-0.2,0.4-0.4,0.6-0.6c1,0.1,1.2,0.2,1.7,1.2
		c-0.1,0.2-0.3,0.3-0.4,0.5c-0.4-0.3-0.7-0.6-1-0.9c-0.3,0.1-0.5,0.2-0.6,0.3c-0.4,1.2,0.2,2.1,0.8,2.9c0.4,0.4,1,0.7,1.5,0.9
		c1.2,0.5,2.5,1.2,4,1.2c0.2,0,0.4,0.3,0.6,0.4c0.1,0.5-0.1,1-0.4,1.4c-0.3,0.4-0.5,0.8-0.9,1.2c0.4,0.3,0.7,0.6,1.1,0.7
		c1.9,0.8,3.5,2,5.1,3.1c0.4,0.3,0.7,0.4,1.2,0.3c-0.4-0.5-0.2-1-0.2-1.7c0.4,0.2,0.5,0.3,0.7,0.4c0.1,0.8,0.2,1.5,0.3,2.2
		c1.1,0.8,2.3,1.6,3.6,2.4c0.5-0.3,0.9-0.5,1.3-0.7c-0.5-1.5-1.4-2.7-1.8-4.2c-0.1-0.4-0.4-0.7-0.6-1c-0.7-0.8-1.5-1.7-2.6-2.3
		c-0.6,0-1.4,0-2.2-0.1c-0.4,0-0.7-0.2-1.1-0.6c0.5-0.5,1.2,0.2,1.8-0.4c0.5,0.4,1.1,0.2,2,0.2c-0.4-0.5-0.7-1-1-1.3
		c-0.6-0.7-1.3-1.2-1.6-2.2c0-0.2-0.2-0.3-0.4-0.5c-0.8,0.6-1.4,1-2,1.5c-0.5,0-0.9-0.1-0.9-0.7c0-0.2-0.1-0.4-0.2-0.6
		c-0.6-1.3-1.2-2.5-1.9-3.7c-0.4-0.5-0.3-1.2-0.7-1.8c-0.5-0.9-1-1.7-1.4-2.6c-0.1-0.2-0.1-0.4-0.4-0.8c0.1-0.1,0.4-0.3,0.5-0.4
		c1.3-0.1,1.7,1.3,2.8,1.2c-0.1-0.4-0.2-0.7-0.2-1.1c0-0.4,0-0.8,0-1.2c0.3-0.2,0.4-0.4,0.6-0.6c0.4-0.1,0.8-0.1,1.3-0.2
		c0.1,0.1,0.5,0.3,0.7,0.4c0,0.4,0,0.7,0,1.3c-0.4-0.5-0.6-0.8-0.8-1.1c-0.6,0.3-0.9,0.7-1.1,1c-0.3,0.4,0.5,0.6,0,0.9
		c0,0,0.2,0.5,0.4,1c1.1,1.3,2.7,2.3,4.3,3.3c0.6,0.4,1.1,1,1.8,1.5c-0.1,0.3-0.3,0.6-0.4,0.8c-0.6,0.5-1.3,0.9-1.9,1.4
		c1,1.4,2.1,2.9,3.1,4.4c0.1-0.9,0.3-1.8,0.6-2.8c0.1,0,0.4,0,0.7,0c0,0.3,0.1,0.7,0,0.9c-0.6,1.1-0.2,2,0.2,3
		c0.5,1.3,1.6,2.2,2.6,3.1c0.6-0.1,0.4,0.8,1,0.9c0.4,0,0.7,0.3,1.1,0.5c1-0.7,0.7-2,1.3-2.7c0-1,0.7-1.9,0.7-3
		c-0.7-0.9-1.7-1.6-2.7-1.9c-0.2-0.3-0.5-0.6-0.9-1c1.8-0.4,2.5,1.2,3.7,1.7c-0.1-0.8,0.3-1.5-0.2-2.2c-0.1-0.1,0-0.4,0-0.5
		c0-0.5,0-0.9-0.2-1.4c-0.2-0.6,0.2-1.3,0.4-2c0.1,0,0.2,0,0.2,0c0,0.1,0.1,0.1,0.1,0.2c0.1,0.8,0.2,1.7,0.2,2.5
		c0,0.9,0,1.7-0.1,2.6c0,0.4,0.2,0.9,0.3,1.4c1-0.6,1.4-1.8,2.3-2.3c0.9-0.6,1.8-1,2.8-1.5c0.1,0.1,0.2,0.3,0.5,0.5
		c-0.3,0.2-0.5,0.4-0.8,0.5c-0.5,0.3-1,0.5-1.5,0.8c-1.1,0.7-1.8,1.9-2.7,2.9c0.1,2,1,3.7,2,5.6c0.4-0.4,0.6-0.7,0.9-1
		c0.4-0.4,0.8-0.8,1.2-1.2c0.4-0.4,0.6-0.7,0.9-1.1c0.5-0.7,1-1.3,1.3-2.1c0.3-0.6,0.4-1.1,0.3-1.9c0-0.7,0-1.4,0.1-2.2
		c0.2,0,0.4,0,0.5,0c0,0.5,0.1,1.1,0.1,1.6c0.1,0.5,0.1,0.9,0.2,1.5c1.3-1.7,2.4-3.2,3.5-5c-0.6-0.4-1.2-0.6-1.6-1.1
		c-0.4-0.4-1.4-0.4-1.2-1.5c0.6-0.4,1.3-1,2-1.4c0.8-0.4,1.3-1.1,2-1.5c0.8-0.3,1.3-1,1.9-1.6c0.4-0.4,0.8-1,1-1.5
		c0.3-0.4-0.2-1.5-0.6-1.8c-0.2-0.2-0.5-0.2-0.9-0.4c-0.4,0.2-0.9,0.4-1.4,0.7c0.2,0.4,0.4,0.8,0.6,1.2c-0.4,0.3-0.7,0-1-0.3
		c0-0.3,0-0.7,0-1.1c0.3-0.3,0.6-0.6,1.1-0.9c1.1-0.1,2.4-0.1,2.7,1.5c-0.1,0.7-0.3,1.4-0.5,2.1c0.9-0.3,1.4-0.7,1.9-1.2
		c0.4-0.3,0.8-0.5,1.1-0.8c0.2,0.2,0.4,0.3,0.5,0.5c-0.1,0.1-0.1,0.2-0.3,0.3c-0.4,0.9-0.7,1.9-0.9,2.8c-0.9,2.6-1.7,5.2-2.7,7.8
		c-0.1,0.5-0.5,0.6-1,0.6c-0.7-0.5-1.2-1.4-2.2-1.8c-0.5,0.7-1.3,1.3-1.8,2.1c-0.4,0.7-0.9,1.4-1.5,2C64.5,26,64.5,26,64.1,27
		c0.8-0.1,1.1-0.5,1.9-0.8c0.2,0,0.7,0,1.2,0c0,0.1,0,0.3,0,0.4c-2.5,0.7-3.5,1.1-5.3,2.9c0,0.3,0,0.5,0,0.5
		c-0.7,1.7-1.4,3.1-1.5,4.8c0.2,0,0.5,0,0.6,0.1c0.2,0,0.4,0.1,0.6,0.2c0.3-0.2,0.6-0.5,1-0.7c0.6-0.6,1.8-0.9,2-2
		c0.1-0.3,0.5-0.6,0.8-0.8c0.1-0.8,0.3-1.4,0.5-2.1c0.1,0,0.2,0,0.4,0c0.4,0.8-0.2,1.6-0.3,2.6c2.5-1.8,5-3.6,7.4-5.2
		c0-1.1-1-1.3-1.3-2.1c0-0.2,0-0.5,0-0.8c0.4-0.3,0.6-0.8,1.3-0.7c0.9-0.5,1.8-0.8,2.8-0.9c1.3-0.3,2.3-0.8,2.9-1.9
		c0-0.1,0.3-0.2,0.4-0.2c0,0.3,0.1,0.7-0.4,1c0.7,0.4,1.4-0.1,2-0.3c0.9-0.3,1.6-0.8,2.6-0.5c0,0.2,0,0.4,0,0.6
		c-0.5,0.6-1.2,1.2-1.7,1.8c-0.5,0.7-0.9,1.4-1.5,2c-0.6,0.6-1,1.5-1.8,1.9c0-0.1,0-0.3,0-0.4c0.8-1.1,1.8-2,2.4-3
		c0-0.1,0.4,0,0.4-0.4c0-0.6,0.4-0.9,0.9-1c0.1,0,0.3-0.2,0.5-0.6c-0.5,0.1-0.9,0.1-1.1,0.2c-1,0.5-2.1,0.9-3.3,1.1
		c-0.6,0.2-1.3,0.3-1.8,0.8c-0.1,0.1-0.3,0.1-0.4,0.1c-0.9,0.3-2,0.4-2.9,0.5c-0.3,1,0.1,1.9,0.6,2.6c0.5,0.8,1.2,1.5,1.8,2.3
		c0.5-0.4,1.1-0.8,1.4-1.3C78,27.6,78.4,27.5,78.7,27.3z M58.2,35.3c0.3-0.5,0.5-1,0.8-1.5c-0.2,0-0.5,0-0.7,0c0,0.5,0,0.9,0,1.4
		c0,0,0,0,0-0.1c-0.1,0.1-0.1,0.1-0.3,0.2c0,0,0,0.1,0.1,0.1C58.1,35.3,58.2,35.2,58.2,35.3z M57.4,33.4c-0.1,0.1-0.4,0.2-0.5,0.3
		c-0.1-0.6,0.3-1.1,0.5-1.6C57.3,32,57,32,56.9,31.9c0.1-0.1,0.1-0.2,0.3-0.4c-0.4,0-0.5,0-0.7,0c-0.1,0.3-0.3,0.5-0.4,0.8
		c0,0,0,0,0-0.1c-0.1,0.1-0.1,0.1-0.3,0.2c0,0,0,0.1,0.1,0.1c0.1-0.1,0.1-0.1,0.1-0.3c0.2,0,0.4,0.1,0.5,0.1c0,0.6-0.8,0.9-0.4,1.6
		c0.3-0.1,0.5-0.2,0.8-0.3c-0.1,0.6,0.7,0.6,0.6,0.9c0.1-0.1,0.4-0.1,0.6-0.2c-0.2-0.4-0.5-0.7-0.3-1.6c-0.3,0.2-0.4,0.2-0.3,0.3
		c0,0.1,0.1,0.3,0.1,0.4C57.6,33.2,57.6,33.1,57.4,33.4z M54.8,39.4c0.1-0.4,0.1-0.9,0.3-1.6c-0.5,0.5-0.8,0.9-2.3,3
		c0.4-0.7,0.9-1.4,1.3-2.1c-0.2-0.1-0.4-0.1-0.5-0.2c-0.3,0.5-0.4,1.1-1,1.5c0.3-0.7,0.4-1.2,0.7-1.7c-0.1,0-0.2,0-0.4,0
		c-0.6,1-1.3,1.8-1.8,2.8c-0.5,1-1.3,1.8-1.6,3c1.1-0.2,1.1-1.1,1.7-1.7c0.1,0.1,0.2,0.2,0.5,0.4c0.1-0.3,0.4-0.6,0.4-0.8
		c0-0.4,0.3-0.6,0.6-0.7c0.1,0.2,0.2,0.4,0.2,0.6c0.1-0.2,0.3-0.3,0.4-0.5c-0.1-0.2-0.4-0.4,0.7-2.3c0,0.2,0,0.4,0.1,0.5
		C54.3,39.6,54.6,39.5,54.8,39.4c0,0.2,0,0.3,0,0.5c0.4-0.2,0.6-0.3,0.9-0.4c0.1-0.3,0.1-0.7,0.3-1c0.1,0.1,0.4,0.2,0.4,0.3
		c0,0.5-0.1,0.9-0.2,1.3c0,0.1-0.1,0.2-0.3,0.3c0-0.2,0-0.3,0-0.6c-0.5,0.2-0.9,0.4-1.1,0.6c-0.1-0.1-0.2-0.2-0.4-0.3
		c-0.1,0.3-0.3,0.7-0.5,1.1c0.4-0.1,0.6-0.2,0.9-0.4c0,0.6,0.5,0.9,0.3,1.5c0,0,0,0,0-0.1c-0.1,0.1-0.1,0.1-0.3,0.2
		c0,0,0,0.1,0.1,0.1c0.1-0.1,0.1-0.1,0.1-0.3c0.1,0,0.4,0,0.5,0c-0.3,0.3-0.4,0.6-0.6,0.9c0.1,0.3,0.2,0.6,0.4,0.9
		c0,0.1,0.2,0.1,0.4,0.1c0.3-0.4,0-0.7-0.1-1.1c0.1-0.1,0.4-0.3,0.6-0.5c0.2,0.3,0.4,0.5,0.5,0.7c0.1,0.1,0.2,0.2,0.6,0.5
		c-0.1-0.7-0.2-1.1-0.3-1.5c0.1-0.1,0.4-0.1,0.5-0.2c0-0.1,0-0.2,0-0.5c-0.2,0-0.5,0-0.7,0c0-0.1,0-0.3,0-0.4
		c0.8-0.5,1.5-0.6,2.2,0.1c0.4,0.3,0.9,0.4,1.2,0.6c0.4-0.1,0.6-0.1,1.1-0.2c-0.3,0.4-0.4,0.6-0.5,0.9c0.6-0.3,0.9,0.1,1.2,0.4
		c0.1,0.1,0.2,0,0.5,0.1c0-0.2,0-0.3,0-0.4c-0.7-0.9-1.3-1.8-2.1-2.8c-0.2-0.3-0.5-0.9-0.7-1c-0.8,0.3-0.7-0.3-1.4-0.3
		c-0.4,0-0.7-0.5-1.1-0.7c-0.1,0.1-0.3,0.2-0.3,0.3c-0.1-0.1-0.2-0.2-0.2-0.3c-0.3,0.3-0.6,0.6-0.9,0.8c-0.5-0.1-0.8,0.2-0.9,0.6
		C55,39.3,54.8,39.4,54.8,39.4z M59.3,35.7c-0.1-0.7,0.3-1.2,0.7-1.6c0.6-0.7,0.9-1.6,1.3-2.5c-0.4,0.1-0.6,0.2-0.8,0.4
		c-0.5,0.9-1,1.9-1.6,2.8c-0.3,0.4-0.5,0.7-0.5,1.2c0,0,0,0,0-0.1c-0.1,0.1-0.1,0.1-0.3,0.2c0,0,0,0.1,0.1,0.1
		c0.1-0.1,0.1-0.1,0.1-0.3c0.1,0,0.4,0,0.5,0c-0.1,0.3-0.1,0.7-0.3,1.1c0.4-0.4,0.8-0.7,1.1-1.1c0-0.1,0-0.4,0-0.6
		C59.6,35.5,59.4,35.6,59.3,35.7z M108.4,39.9c0.4-0.1,0.6-0.2,1-0.4c0.1,0.2,0.1,0.4,0.1,0.5c0.5,0.1,0.9,0.2,1.6,0.4
		c-0.6-0.7-1-1.1-1.3-1.5c-0.1-0.2,0-0.6-0.5-0.5c-0.9-0.7-1.7-1.4-2.4-2.3c-0.7-0.8-1.6-1.5-2.3-2.4c-0.1-0.2-0.4-0.3-0.6-0.5
		c-0.4,0.5-0.6,0.9-1,1.3c-0.4,0.4-0.6,0.8-0.7,1.4c-0.6,0.4-0.1,1-0.3,1.3c-0.4,0.3-0.6,0.5-0.9,0.6c0.1,0.2,0.2,0.3,0.4,0.5
		c0.1-0.1,0.3-0.2,0.3-0.2c1.2,0.3,2.5,0.7,3.7,1c0.1,0.1,0.2,0.2,0.4,0.3c0.3-0.1,0.6-0.3,0.8-0.2c0.5,0.5,1,0.1,1.6-0.1
		C108.4,39.5,108.4,39.6,108.4,39.9C108.4,39.8,108.4,39.8,108.4,39.9c-0.1,0-0.2,0-0.3,0.1c0,0,0,0.1,0.1,0.1
		C108.3,40,108.3,39.9,108.4,39.9z M74,13.5c-0.8,0.2-1,0.8-1.6,1c-0.6,0.2-1,1-1.8,1.1c-0.4,0.6-0.9,0.8-1.4,1.1
		c-0.6,0.3-1.1,0.8-1.7,1.3c-0.5,0.4-1.3,0.4-1.7,1.2c0.6,0.5,1.2,1,2,1.6c0.1,0,0.4,0,0.5,0c0.2,1.2,1.6,1.3,2.1,2.3
		c0.5,0,0.9-0.1,1-0.6c0.5-1.7,1.1-3.4,1.7-5.1c0.4-1.2,0.8-2.4,1.2-3.6C74.2,13.7,74,13.6,74,13.5z M39.8,20.7
		c0.2,0.2,0.5,0.4,0.7,0.5c-0.1,0.2-0.3,0.4-0.4,0.6c0.4,0.2,0.6,0.4,0.9,0.6c0,0.2,0.1,0.5,0.1,0.7c0.4-0.1,0.6-0.2,0.8-0.3
		c0.9-0.8,1.9-1.5,2.8-2.1c0.1,0,0.1-0.1,0.1-0.2l0-0.1c-0.7-0.5-1.3-1.2-2.1-1.6c-0.9-0.4-1.5-1-2.2-1.8c-0.1,0-0.5,0.1-0.5,0
		c-0.5-0.6-1.2-0.9-2-1.3c-0.1,0.1-0.3,0.2-0.4,0.2c-0.1,0.1-0.4,0.1-0.6,0.1c0.3,1.3,1.5,1.9,1.7,3c0.2,0.2,0.5,0.3,0.7,0.5
		C39.8,20,39.8,20.4,39.8,20.7z M50.5,36.3c-0.1,0.3-0.1,0.5-0.3,0.7c-0.2-0.1-0.4-0.2-0.5-0.3c-0.3,0.1-0.6,0.2-0.9,0.2
		c0.1,0.1,0.2,0.1,0.2,0.2c-0.3,0.2-0.6,0.3-1.1,0.6c0.9,0,1.2,0,1.7,0c0.5,0,1-0.1,1.5-0.1c0.5,0,1.1-0.2,1.6-0.1
		c0.5,0.1,0.9-0.7,1.3-0.1c0.4-0.2,0.9-0.4,1.3-0.6c0-0.6,0.2-1.2,0-1.7c-0.1-0.6-0.5-1.1-0.2-1.7c0.3-0.5,0-1,0-1.4
		c0-0.6,0-1.2,0-1.8c-0.2,0-0.4,0-0.5,0c-0.1,0.8-0.3,1.6-0.4,2.3c-0.3,0.6-0.5,1.2-0.8,1.7c-0.5,0-0.9,0-1.5,0
		c0.1-0.3,0.3-0.5,0.4-0.7c-0.1-0.1-0.2-0.2-0.4-0.4c-0.1,0.1-0.3,0.2-0.4,0.3c-0.1-0.3-0.4-0.6-0.5-0.8c-0.2,0-0.4,0-0.6,0
		c0-0.3,0-0.5,0-0.8c-0.1,0-0.2,0-0.5,0c0.1,0.3,0.1,0.6,0.2,0.9c0.1,0.2,0.4,0.4,0.4,0.5c0,0.5,0.2,0.7,0.7,0.8
		c0.2,0.1,0.5,0.3,0.6,0.4c-0.1,0.7-0.3,1.2-0.3,1.8C51.2,36.3,50.9,36.3,50.5,36.3z M64.3,36.9c-0.7,0-1.3,0.1-1.9,0.1l0,0.1
		c0.1,0.1,0.2,0.2,0.2,0.3c0.5,0,1,0,1.5,0C64.1,37.2,64.1,37.2,64.3,36.9z M56.3,36.4c0.4-0.4,0.8-0.8,0.7-1.5
		C56.6,35.4,55.9,35.7,56.3,36.4z M57.9,37.2c-0.4-0.2-0.7-0.3-1-0.5c-0.1,0.2-0.3,0.3-0.5,0.5c0.1,0.1,0.2,0.2,0.4,0.3
		C57.1,37.3,57.5,37.2,57.9,37.2z M60.1,37.5C60,37,60,36.8,60,36.5c-0.3,0.2-0.4,0.3-0.5,0.4C59.6,37.1,59.8,37.2,60.1,37.5z
		 M59.7,38.4c0-0.1,0-0.2,0-0.2c-0.1,0-0.3,0.1-0.5,0.1l0,0.1C59.4,38.4,59.6,38.4,59.7,38.4z M51.3,38.3
		C51.2,38.4,51.2,38.4,51.3,38.3c0.1,0.1,0.1,0.1,0.2,0.1l0-0.1C51.4,38.3,51.4,38.3,51.3,38.3z M56,45.2C56,45.2,55.8,45.2,56,45.2
		c-0.1,0.1-0.1,0.2-0.1,0.3c0,0,0,0,0.1,0C56,45.4,56,45.3,56,45.2z"/>
	<path class="st0" d="M49,16.9c-0.2-0.7-0.5-1.5-0.7-2.3c-0.4-0.1-0.9-0.3-1.5-0.4c-0.6-0.6-0.6-1.4-0.6-2.4
		c0.6-0.6,1.3-1.2,1.9-1.9C48,9.5,47.8,9,47.7,8.5c0.5-1,0.5-1,1.3-1.5c0.5,0,0.9,0,1.2,0c0.8-0.4,0.5-1.4,1.4-1.7
		c0.4-0.1,0.8-0.2,1.1-0.2c0.5,0.4,0.9,0.8,1.6,1.3c-0.1-0.8,0.2-1.3-0.2-1.9c-0.5-0.9-0.2-2.2-1.3-2.9c-0.4,0-0.9,0-1.4,0
		c-0.4,0.8,0.6,0.9,1,1.3c-1,0.5-1.4,0.2-2-1.2c0-1,0.9-1.2,1.5-1.5c0.5-0.2,0.9,0.1,1.2,0.4C54,1.3,54.4,2.1,54.6,3
		c0,0.2,0.2,0.4,0.4,0.7c0.1-0.4,0.4-0.6,0.4-0.9c0-1.2,0.8-2,1.6-2.7c1-0.2,1.5,0.3,2.1,1c-0.1,0.4-0.4,0.8-0.5,1.2
		c-0.1,0-0.2,0-0.4,0c0-0.3,0-0.6,0-1c-0.4,0-0.6,0-1-0.1C56.2,2,55.7,3,55.5,4.3c0,0.3-0.3,0.7-0.3,1s0,0.7,0,1
		c0.9,0.2,0.5-0.5,0.9-0.7c0.3-0.2,0.5-0.5,0.9-0.8c0.3-0.1,0.6-0.2,0.9-0.3c0.2,0.1,0.5,0.2,1,0.3c0.1,0.3,0.2,0.8,0.5,1.3
		c0.5,0,0.9,0,1.4,0c0.7,0.3,1.1,0.8,1.2,1.6c0.1,0.8-0.5,1.2-1,2c0.6,0,1.1,0.1,1.6,0.1c0.6,0.3,1.2,0.7,1.5,1.4c0,0.2,0,0.4,0,0.7
		c0,0.7-0.3,1.2-1,1.5c-0.5,0.2-0.8,0.5-1.1,0.7c-0.1,0.7-0.3,1.2-0.4,1.7c-0.6,0.7-1.5,0.5-2.3,0.4c0,0.7,0,1.4,0,2.1
		c-0.4,0.5-0.9,1-1.3,1.6c-0.4-0.2-0.7-0.3-1.1-0.4c-1.1-0.6-1.1-0.6-2.4-0.1c-0.5,0.2-1,0.3-1.4,0.4c-0.5-0.5-0.9-0.9-1.3-1.4
		c0.1-0.5,0.1-1,0.3-1.6c-0.2-0.2-0.5-0.1-0.9,0.1C50.5,17.3,49.7,17.6,49,16.9z M57.1,10.3L57.1,10.3c-0.1,0-0.3,0.1-0.3,0.1
		s0,0.1,0.1,0.1C57,10.5,57,10.4,57.1,10.3c0-0.1,0.1-0.2,0.3-0.3c0.3-0.1,0.5-0.2,1-0.3c-0.6,0.8-1,1.3-1.4,1.9
		c0.8-0.2,1.3-0.8,1.9-1c1.1-0.4,1.5-1.5,2.3-2.3c0.1-0.1,0.1-0.3,0.3-0.4c-0.2-0.3-0.4-0.5-0.6-0.7c-0.6,0-1.1,0-1.7,0
		c-0.2-0.5-0.3-1.1-0.6-1.6c-0.4,0-0.6,0-0.9,0c-0.8,0.5-1.1,0.8-1.5,1.2c-0.2,1.2-0.9,2.2-0.6,3.5c0.3-0.5,0.4-0.9,0.8-1.6
		c0,0.8,0.1,1.3,0.1,2.1c0.3-0.8,0.5-1.2,0.7-1.7c0.1,0,0.2,0,0.4,0.1c0,0.3,0,0.5,0,0.8C57.3,10.1,57.1,10.2,57.1,10.3z M52.6,12.1
		c0,0.1,0,0.3,0,0.5c0.2,0,0.5,0,0.7,0c0-0.2,0-0.3,0-0.5C53.2,12.1,53,12.1,52.6,12.1c0-0.1,0-0.1,0-0.2c-1.4-0.2-2.6-1-4-1
		c-0.3,0.2-0.3,0.3-0.3,0.2c-0.1,0.8,0.5,1.3,0.2,2c-1,0.2-1-0.5-1.1-1.1c-0.3,0.2-0.4,0.3-0.4,0.4c0,0.3,0,0.6,0,0.9
		c0.9,0.2,1.7,0.3,2.1,1.1c0,0.5,0,1,0,1.5c0.6,0.8,1.2,0.4,1.7,0.1c0.8-0.5,1.4-1.1,2-1.6c0-0.4,0-0.8,0-1c-0.6-0.2-1.3,0.6-1.9,0
		c0.4-0.3,0.8-0.5,1.1-0.8c0-0.1-0.1-0.1-0.1-0.2c-0.4,0.1-0.8,0.2-1.3,0.3c0-0.2,0-0.3,0-0.4C51.6,12.4,52.1,12.3,52.6,12.1z
		 M54.1,19c0.8-0.8,1.6-1.1,2.5-0.3c0.4,0.3,0.7,0.1,1,0.2c0.1-0.2,0.4-0.3,0.5-0.5c0.1-0.2,0.1-0.4,0.3-0.6
		c0.1-0.2,0.3-0.4,0.3-0.6c-0.2-0.5-0.5-0.9-0.8-1.3c-0.2-0.4-0.6-0.8-1-1.2c-0.1,0.3-0.1,0.5-0.3,0.8c-0.2-0.6-0.4-1-0.5-1.5
		c-0.1,0-0.2,0-0.2,0c-0.1,0.7-0.3,1.4-0.5,2.2l-0.1,0c0-0.5,0-1,0-1.6c-0.4-0.1-0.6-0.3-1-0.5c-0.1,0.5-0.4,0.8-0.5,1.1
		c-0.3,0.2-0.5,0.3-0.6,0.4c-0.3,0.7-0.4,1.3-0.5,1.9c-0.1,0.5,0.1,1.4,0.5,1.7C53.3,19,53.7,19,54.1,19z M62.5,10.7
		c-1.2,0-2.4-0.2-3.3,0.5c0.1,0.3,0.1,0.4,0.2,0.6c-0.3,0.1-0.4,0.1-0.6,0.2c0.4,0.2,0.6,0.4,0.7,0.5c-0.1,0.2-0.1,0.4-0.3,0.5
		c-0.4-0.1-0.6-0.2-1-0.4c0.1,0.5,0.1,0.8,0.2,1.4c-0.7-0.5-1.1-1.1-2-1c0.5,0.6,1,1.1,1.2,1.7c0.2,0.7,0.7,0.8,1.2,1.1
		c0.5-0.2,1-0.3,1.5-0.5c0.1-0.5,0.4-1.1,0.5-1.8c0.4-0.6,1.6-0.5,2-1.6C63.1,11.5,62.9,11.1,62.5,10.7z M48.9,9.4
		c0.4,0.3,0.6,0.7,0.9,0.9c0.4,0.1,0.7,0.2,1,0.2c0-0.6,0.5-0.5,0.8-0.7c0.3-0.2,0.6-0.3,0.9-0.5c0.4-0.3,0.7,0,1,0.1
		c0-0.3,0.1-0.5,0.1-0.9c0.2,0.4,0.5,0.7,0.6,1c0.3-1.4-0.3-2.4-1-3.3C52.6,6.2,52.2,6.1,52,6c-0.3,0.3-0.5,0.5-0.6,0.8
		c-0.1,0.3-0.1,0.6-0.3,0.8c-0.9,0.2-1.6,0.4-2.4,0.5C48.9,8.7,48.9,9,48.9,9.4z M53.7,10.9c-0.2-0.4-0.5-0.6-0.6-0.8
		c-0.4,0-0.8,0.1-1.4,0.1C52.4,10.7,52.7,11.1,53.7,10.9z"/>
	<path class="st0" d="M79.6,20.8c0-0.9,0.2-1.8-0.6-2.5c-0.4,0-0.7,0-1.2,0c-0.1,0.2-0.4,0.4-0.5,0.6c0.1,0.2,0.2,0.4,0.2,0.6
		c0.2,0,0.5,0.1,0.7,0.1c-0.8,0.6-0.8,0.6-1.4,0.1c0-1.1,0-1.1,0.7-2.1c0.4,0,0.9,0,1.4,0c0.2,0.2,0.6,0.4,1,0.7
		C80.3,19.1,80.3,19.9,79.6,20.8z"/>
	<path class="st0" d="M4.7,40.6c0.3-0.1,0.4-0.1,0.6-0.2C5.4,40.7,5.2,40.8,4.7,40.6z"/>
	<path class="st0" d="M7.9,39.9c0,0,0.1-0.3,0.1-0.6c0-0.3,0-0.6-0.1-0.6c0,0-0.1,0.3-0.1,0.6C7.8,39.6,7.9,39.9,7.9,39.9z"/>
	<path class="st0" d="M8.8,38.8c-0.1,0-0.2,0-0.5,0l0-0.1c0.1,0,0.3-0.1,0.5-0.1C8.8,38.7,8.8,38.8,8.8,38.8z"/>
	<path class="st0" d="M33.9,27.9c0-0.2,0-0.3,0-0.5l0.1,0c0,0.2,0.1,0.3,0.1,0.5C34.1,27.9,34,27.9,33.9,27.9z"/>
	<path class="st0" d="M8.7,40.1c0,0,0.1-0.1,0.1-0.2c0-0.1,0-0.2-0.1-0.2c0,0-0.1,0.1-0.1,0.2C8.6,40,8.7,40.1,8.7,40.1z"/>
	<path class="st0" d="M10.1,40.3c0.1,0,0.2,0,0.3-0.1c0,0-0.1-0.1-0.2-0.1s-0.2,0-0.3,0.1C9.9,40.3,10,40.3,10.1,40.3z"/>
	<path class="st0" d="M7.6,41.2c0,0,0.1-0.1,0.1-0.2c0-0.1,0-0.2-0.1-0.2c0,0-0.1,0.1-0.1,0.2C7.5,41.1,7.6,41.2,7.6,41.2z"/>
	<path class="st0" d="M79,27c-0.1,0.1-0.1,0.2-0.3,0.3C78.9,27.2,78.9,27.1,79,27z"/>
	<path class="st0" d="M4,41.3c0,0,0.1-0.1,0.1-0.2c0-0.1,0-0.2-0.1-0.2c0,0-0.1,0.1-0.1,0.2C4,41.2,4,41.3,4,41.3z"/>
	<path class="st0" d="M4.6,42c0,0,0.1-0.1,0.1-0.2c0-0.1,0-0.2-0.1-0.2c0,0-0.1,0.1-0.1,0.2S4.5,42,4.6,42z"/>
	<path class="st0" d="M3.2,42.2c0,0,0.1-0.1,0.1-0.2c0-0.1,0-0.2-0.1-0.2c-0.1,0-0.1,0.1-0.1,0.2C3.1,42.1,3.1,42.2,3.2,42.2z"/>
	<path class="st0" d="M56.7,41.9c-0.3,0.4-0.6,0.6-1.1,0.6c0-0.2,0-0.3,0-0.6C55.9,41.9,56.3,41.9,56.7,41.9z"/>
	<path class="st0" d="M57.8,40.9c0-0.2,0-0.3,0-0.5c0.1,0,0.2,0,0.4-0.1C58.4,40.7,58.4,40.9,57.8,40.9z"/>
	<path class="st0" d="M58,39.7c0.1,0,0.2,0,0.3-0.1c0,0-0.1-0.1-0.2-0.1c-0.1,0-0.2,0-0.3,0.1C57.7,39.7,57.8,39.7,58,39.7z"/>
	<path class="st0" d="M55.6,40.8c0.1-0.1,0.1-0.2,0.3-0.3C55.8,40.6,55.7,40.7,55.6,40.8z"/>
	<path class="st0" d="M55.6,40.8c-0.1,0.1-0.1,0.2-0.3,0.3C55.4,41,55.4,40.9,55.6,40.8z"/>
	<path class="st0" d="M55.3,41.1c-0.1,0.1-0.1,0.1-0.3,0.2c0,0,0-0.1-0.1-0.1C55.2,41.2,55.2,41.1,55.3,41.1L55.3,41.1z"/>
	<path class="st0" d="M52.3,40.3c-0.1,0.3-0.1,0.5-0.3,0.7c0-0.1-0.1-0.3-0.1-0.4C51.9,40.6,52.1,40.5,52.3,40.3z"/>
	<path class="st0" d="M52.1,41c-0.1,0.1-0.1,0.1-0.3,0.2c0,0,0-0.1-0.1-0.1C51.8,41.1,51.9,41,52.1,41C51.9,41,52.1,41,52.1,41z"/>
	<path class="st0" d="M59.3,35.7c-0.1,0.1-0.1,0.2-0.3,0.3C59.1,35.9,59.2,35.8,59.3,35.7z"/>
	<path class="st0" d="M54.4,14.6c0,0,0.1-0.1,0.1-0.2c0-0.1,0-0.2-0.1-0.2c0,0-0.1,0.1-0.1,0.2C54.3,14.6,54.4,14.6,54.4,14.6z"/>
	<path class="st0" d="M52.9,13.7c0,0.3,0,0.4-0.1,0.5c-0.1,0.1-1,0.3-1.5,0.3C51.9,14.2,52.3,14,52.9,13.7z"/>
</g>
</svg>
