<?xml version="1.0" encoding="utf-8"?>
<!-- Generator: Adobe Illustrator 26.0.2, SVG Export Plug-In . SVG Version: 6.00 Build 0)  -->
<svg version="1.1" id="Layer_1" xmlns="http://www.w3.org/2000/svg" xmlns:xlink="http://www.w3.org/1999/xlink" x="0px" y="0px"
	 viewBox="0 0 160 13" style="enable-background:new 0 0 160 13;" xml:space="preserve">
<style type="text/css">
	.st0{fill:#333230;}
</style>
<g>
	<path class="st0" d="M159.7,6.6c-1.6-0.2-3.3-0.4-5-0.4c-2.6,0.1-5.3,0-7.9,0c-3.1,0-6.2,0-9.3,0c-0.7,0-1.4-0.3-2,0.3
		c-0.1,0.1-0.3,0.1-0.3,0c-0.8-0.7-1.7-0.3-2.5-0.3c-2.5,0-5,0-7.5,0c-0.1-0.1-0.1-0.2-0.1-0.2c-0.1,0.1-0.1,0.2-0.2,0.2
		c-2,0-3.9,0-5.9,0c0.1,0,0.2-0.1,0.3-0.1c-0.1,0-0.2-0.1-0.4-0.1c-0.1,0.1-0.2,0.1-0.3,0.2c0.1,0,0.1,0,0.2,0.1c-0.3,0-0.7,0-1,0
		c-0.2-0.1-0.4-0.2-0.7-0.2c-0.3-0.1-0.7,0.2-1-0.2c-0.4-0.4-0.5,0.3-0.9,0.2c-0.5-0.2-1.1,0.2-1.6-0.3c-0.8,0.1-1.7-0.2-2.6,0.2
		c-0.2,0.1-0.5,0-0.8,0.1c-0.5,0.1-1-0.3-1.6-0.1C108.2,6,107.6,6,107,6c-0.4,0-0.8,0.2-1.1-0.2c0-0.1-0.3-0.1-0.4,0
		c-0.9,0.4-2,0.1-2.9,0.5c-1.4,0-2.8,0-4.2,0c0.1-0.2,0-0.3-0.3-0.2c-0.3,0.1-0.5,0.2-0.8,0.2c-0.2,0-0.5-0.2-0.7-0.2
		c-0.8,0-0.8,0.1-0.7-0.7c0-0.4,0-0.7-0.3-1C95.6,4.1,95.5,4,95.4,4c-0.2,0-0.7,0-0.7,0.1c-0.1,0.3,0.2,0.5,0.5,0.6
		c0.4,0.1,0.4,0.3,0.2,0.5c-0.2,0.2-0.4,0.3-0.6,0.5c-0.2,0.3-0.6,0.3-0.8,0.2c-0.3-0.2-0.5-0.2-0.8,0c0,0-0.3,0-0.3-0.1
		c-0.1-0.1-0.1-0.2,0-0.3c0-0.1,0.2-0.2,0.3-0.3c0.4-0.5,0.1-1.2-0.5-1.3c-0.2,0-0.4,0.2-0.5,0.3c-0.4,0.6-0.4,0.6-0.9,0.1
		c-0.1-0.1-0.5-0.2-0.7-0.1c-0.2,0-0.4,0.2-0.6,0.4c0,0,0.1,0.3,0.2,0.4c0.3,0.2,0.7,0.5,1.1,0.4c0.4-0.1,0.6,0.1,0.8,0.4
		c0.3,0.6,1,0.9,1.3,1.5c0.1,0.1,0.2,0.3,0.3,0c0.2-0.4,0.4-0.7,0.6-1c0,0,0.1,0,0.1,0c0.3,0.4,0.6,0.7,0.8,1.1
		c0.1,0.1,0.1,0.4,0,0.6c-0.1,0.1-0.4,0.7-0.5,0c0-0.1-0.5-0.1-0.7-0.1c-0.2,0.1-0.1,0.8,0.1,1c0.3,0.2,0.7,0.3,1.1,0.3
		C95.7,9,96.1,8.5,96,8c-0.1-0.2-0.2-0.4-0.3-0.5c0-0.2,0-0.3,0-0.4c0.4-0.2,0.8-0.1,1.2-0.1c0.2,0,0.5,0,0.7,0
		c0.2,0.1,0.4,0.1,0.6,0c0.2,0,0.3,0,0.5,0c0.2,0,0.4,0.1,0.5,0c0,0,0,0,0,0c0.5,0,1,0,1.4,0c0.4,0.1,0.8,0.1,1.2,0.1
		c0.4,0,0.8,0.1,1.2-0.1c0.2,0,0.3,0,0.5,0c0.2,0.1,0.4,0,0.6,0c1.7,0,3.5,0,5.2,0c0.5,0.1,1.1,0.2,1.6,0c1.4,0,2.8,0,4.1,0
		c0,0,0,0,0,0c0.1,0,0.1,0,0.2,0c8,0,16,0,24,0c0.6,0,1.2-0.1,1.6,0.3c0.8-0.7,1.7,0.1,2.5,0c1.1-0.1,2.2,0,3.3,0
		c1.5-0.1,3,0.3,4.5-0.2c1.4,0.5,2.9,0.1,4.4,0.3c1.5,0.2,2.9-0.5,4.4-0.4c0.1,0,0.2-0.1,0.2-0.2C159.9,6.7,159.8,6.6,159.7,6.6z"/>
	<path class="st0" d="M90.7,7.3c-0.1,0-0.2,0-0.3,0c-0.1,0-0.2-0.1-0.3-0.1c0.1-0.1,0.1-0.3,0.2-0.3c0.3,0,0.4-0.2,0.3-0.4
		c-0.1-0.2-0.2-0.5-0.4-0.6c-0.4-0.1-0.9-0.1-1.1,0.1c0,0,0,0,0,0c0,0,0,0,0,0c-1.2-0.2-2.7,0.4-3.8-0.7c-0.6,0.1-1.3-0.3-1.7,0.3
		C83.3,5.3,83.2,5.2,83,5c0.6-0.5,1.2-1.1,1.7-1.6c0-0.3,0-0.6,0-0.9c-0.3,0-0.6,0-0.9,0c-0.2,0.8-0.9,1.3-1.8,1.6
		C82,4,81.8,3.8,81.6,3.7C81.8,3.3,82,3,82.3,2.5c0-0.3,0-0.8,0-1.1c-0.4-1-1.4-0.9-2.2-1.4c-0.4,0.5-0.9,1.1-1.3,1.6
		c0.7,0.6,0.3,1.2,0.4,2.1c-0.8-0.9-1.5-1.6-2.2-2.4c-0.3,0.3-0.7,0.6-1.1,1c0.7,0.7,1.3,1.3,2,2c-0.2,0.2-0.3,0.4-0.5,0.7
		c-0.2-0.3-0.3-0.5-0.4-0.6c-0.8,0-1.2,0-1.7,0c-0.9,0.9-2.1,1.3-3.4,1.3c-0.1-0.1-0.2-0.1-0.4-0.1c0,0,0,0,0,0.1
		c-0.2,0-0.4,0-0.5,0c0,0.2,0,0.4-0.1,0.7c0,0,0,0-0.1,0c-0.5-0.1,0.1-0.3,0-0.4c-0.3-0.3-0.4-0.7-0.1-0.8c0.5-0.2,0.5-0.5,0.3-0.7
		c-0.1-0.2-0.4-0.3-0.7-0.5c-0.6-0.1-0.6,0.4-0.7,0.6c-0.2,0.2-0.3,0.2-0.5,0c-0.1-0.2-0.2-0.4-0.3-0.5c-0.1-0.1-0.4-0.3-0.5-0.3
		c-0.2,0.1-0.4,0.4-0.4,0.6c0,0.4,0.4,0.8,0.2,1.3c0.1,0,0.2,0,0.3,0c0.2-0.1,0.4-0.1,0.5-0.3c0.3-0.2,0.5-0.1,0.6,0.1
		c0.2,0.4,0.4,0.8,0.7,1.1c0.1,0.2,0.3,0.6,0.4,0.6c0.3,0,0.6-0.2,0.8-0.3c0.1,0.1,0.3,0.2,0.5,0.3c1.3,0.1,2.8-0.4,4.1,0.7
		c0.4-0.3,0.8-0.5,1.2-0.8c0.5,0.7,0,1.1-0.4,1.5c-0.3,0.4-0.5,0.8-0.8,1.3c0.1,0.3,0.3,0.6,0.4,0.9c1.2-0.1,1.4-1.4,2.2-1.9
		c0.3,0.8,0.1,1.5-0.3,2.2c0.3,0.5,0.6,1,0.9,1.6c1-0.3,1.8-0.5,2.5-0.7c0.6-1.1-0.7-1.9,0-2.8c1.2,0.3,1.1,1.8,2.4,2.1
		c0.1-0.2,0.2-0.5,0.4-0.9c-0.1-0.2-0.1-0.7-0.8-1c-0.7-0.3-1-1.1-0.7-2c0.7,0.3,1.2,0.6,1.9,0.9c0.5-0.3,1.1-0.7,1.9-1.1
		c0.3,0,0.9-0.2,1.2,0.3c0.3-0.3,1-0.3,1.4-0.6c0.4,0,0.5,0.2,0.4,0.6c0,0.2,0,0.4,0,0.6c0,0.1,0.2,0.3,0.3,0.3c0.8,0.1,1-0.1,1-1
		C91.2,7.4,91.1,7.2,90.7,7.3z M81.9,7.2c-0.5,0.3-1,0.5-1.5,0.8c-0.4-0.2-0.8-0.3-1.2-0.5c-0.2-0.6-0.3-1.2-0.5-1.7
		c0.1,0.1,0.2,0.1,0.3,0.2c0.2-0.4,0.5-0.8,0.6-1c0.5,0,0.9,0,0.9,0c0.6,0.5,1,0.9,1.4,1.3C81.9,6.4,81.9,6.8,81.9,7.2z"/>
	<path class="st0" d="M66.2,6.2c-0.1-0.3-0.7-0.3-0.6-0.7c0,0-0.1,0.1-0.1,0.1c0,0.2-0.1,0.3-0.2,0.4c0-0.1-0.1-0.1-0.1-0.1
		c-0.2-0.1-0.6-0.3-0.7-0.2c-0.4,0.4-0.9,0.2-1.3,0.2c-0.3,0-0.6,0-0.8,0c-0.5-0.1-1-0.3-1.4-0.2c-0.5,0.1-0.9-0.1-1.4,0.2
		c0,0,0,0,0,0c-1.2,0-2.5,0-3.7,0c-0.1-0.2-0.2-0.3-0.5,0c0,0-0.1,0-0.1,0c-0.6-0.4-1.3-0.1-1.7-0.2c-1-0.1-1.9,0.1-2.7,0.2
		c-0.7,0-1.3,0-2,0c-0.9-0.1-1.7-0.3-2.6-0.2c-0.1,0-0.3,0.1-0.4,0.2c0,0,0,0,0,0c-0.1,0-0.2,0-0.2,0c0,0,0,0,0-0.1
		c0,0-0.1-0.1-0.2-0.1c0,0.1-0.1,0.1-0.1,0.2c-0.2,0-0.4,0-0.5,0c-0.1-0.1-0.2-0.2-0.3-0.2c-0.3-0.1-0.6,0-0.9,0c0,0,0,0,0-0.1
		c-0.4,0.1-0.8,0.1-1.1,0.2c0,0-0.1,0-0.1,0.1c-1.9,0-3.8,0-5.6,0c-0.1,0-0.2-0.1-0.3-0.2c-0.1-0.1-0.4,0-0.6,0.1
		c-0.1,0-0.1,0.1-0.2,0.1C30.6,6,25.8,6,21,6c-0.6,0-1.2,0.1-1.6-0.3c-0.8,0.7-1.7-0.1-2.5,0c-1.1,0.1-2.2,0-3.3,0
		c-1.5,0.1-3-0.3-4.5,0.2C7.6,5.4,6.1,5.8,4.7,5.6C3.2,5.4,1.7,6.1,0.2,6C0.2,6,0.1,6.1,0,6.1c0.1,0.1,0.2,0.1,0.3,0.2
		c1.6,0.2,3.3,0.4,5,0.4c2.6-0.1,5.3,0,7.9,0c3.1,0,6.2,0,9.3,0c0.7,0,1.4,0.3,2-0.3c0.1-0.1,0.3-0.1,0.3,0c0.8,0.7,1.7,0.3,2.5,0.3
		c11.5,0,23,0,34.4,0c0.9,0,1.8-0.3,2.7,0.2c0.1,0,0.3-0.1,0.5-0.3c0,0,0.1,0,0.1,0c0.1,0,0.2,0,0.2,0.1c-0.1,0.1-0.1,0.2-0.2,0.3
		c-0.5,0.7-0.5,1.2,0.1,1.7c0.2,0.2,0.3,0.3,0.7,0.1c0.5-0.3,0.5-0.3,0.5-0.7C66.3,7.4,66.3,6.8,66.2,6.2z M65.7,8.3
		c-0.3,0-0.6-0.4-0.5-0.7c0.1-0.2,0.3-0.4,0.5-0.7c0.2,0.4,0.4,0.7,0.5,1.1C66.2,8,65.9,8.3,65.7,8.3z"/>
	<path class="st0" d="M70.6,7.7c-0.2-0.4-0.6-0.1-0.8-0.5c-0.2,0.2-0.3,0.4-0.4,0.5c0,0.7,0.2,1,0.7,1c0.2,0,0.9-0.5,0.9-0.6
		C70.9,8,70.6,7.9,70.6,7.7z"/>
	<path class="st0" d="M68.2,7.3c0.1,0.1,0.2,0.1,0.3,0.2c0-0.1,0.1-0.2,0.1-0.3C68.5,6.7,67.8,6,67.3,6c-0.1,0.1-0.3,0.2-0.5,0.4
		c-0.1,0.1,0,0.3,0.1,0.4C67,6.9,67.4,7,67.4,7C68,6.3,68,7.1,68.2,7.3z"/>
	<path class="st0" d="M65.9,3.9c-0.2,0.2-0.5,0.3-0.7,0.5c-0.3,0.2-0.4,0.4-0.1,0.7c0.1,0.1,0.1,0.3,0.2,0.4c0-0.2,0.1-0.3,0.1-0.5
		c0-0.3,0-0.5,0.3-0.7c0.3-0.2,0.4-0.1,0.5,0.2c0,0.2,0.1,0.3,0.1,0.5c0.1-0.1,0.1-0.3,0.2-0.4c0-0.2,0-0.5-0.1-0.6
		C66.3,3.9,66.2,3.5,65.9,3.9z"/>
	<path class="st0" d="M92.8,7.8c0-0.1-0.1-0.1-0.1-0.2c-0.1,0-0.1,0.1-0.2,0.1c-0.2,0.1-0.4,0.2-0.6,0.4c0,0-0.1,0.2,0,0.2
		c0.1,0.2,0.2,0.4,0.3,0.5C92.2,8.9,92.4,9,92.4,9c0.1-0.1,0.3-0.2,0.4-0.4c0.1-0.1,0-0.3,0-0.5C92.8,8,92.8,7.9,92.8,7.8z"/>
	<path class="st0" d="M67.6,8.1c0.2,0.3,0.3,0.5,0.5,0.8c0.2-0.2,0.5-0.5,0.7-0.7c-0.3-0.1-0.6-0.3-1-0.3
		C67.8,7.8,67.6,8.1,67.6,8.1z"/>
</g>
</svg>
