<svg xmlns="http://www.w3.org/2000/svg" viewBox="0 0 170.08 49.95">
<style type="text/css">
	.st0{fill:#333230;}
</style>
<g transform="scale(0.70281 0.999)">
<path class="st0" d="M47.2,43.9h1.6c-0.1,0-0.3,0-0.4,0C48,43.9,47.6,43.9,47.2,43.9z"/>
<g>
	<g>
		<g>
			<path class="st0" d="M7.2,43.8c0.3-0.4-0.1-0.8-0.5-0.6c-1.1,0.6-2.8,1.4-4.2,2.4c-2.5,1.7-2.9,4.6-0.8,4.2     C3.2,49.5,5.9,45.9,7.2,43.8z"/>
			<path class="st0" d="M7.4,44.4c-0.2,1.4-0.6,2.9-1.5,3.5c0,0-2.2,2.8,0.6,1.8c1.6-0.6,1.7-3.2,1.5-5.3C8,44.1,7.4,44,7.4,44.4z"/>
			<path class="st0" d="M5.9,42.9c-1.2,0.2-3.4,0.6-4.8,2c0,0-2,0.7-0.7-1.2c1.2-1.8,2.8-2.9,5.6-1.4C6.3,42.5,6.2,42.9,5.9,42.9z"/>
		</g>
		<path class="st0" d="M9,45.1c-0.1-0.1-0.3,0-0.3,0.1c0,0.7-0.1,2.6,0,2.7c0.1,0.2,1.3,1.5,1.8,0C10.7,46.9,9.5,45.6,9,45.1z"/>
		<path class="st0" d="M6,41.1c0.1,0.1,0,0.3-0.2,0.3c-0.7-0.1-2.5-0.4-2.6-0.5c-0.2-0.1-1.3-1.6,0.4-1.8C4.6,39,5.6,40.5,6,41.1z"/>
	</g>
	<g>
		<g>
			<path class="st0" d="M6.3,7.3c0.4,0.3,0.8-0.2,0.6-0.6C6.4,5.6,5.5,4,4.6,2.6C2.9,0,0-0.4,0.4,1.7C0.7,3.3,4.3,6,6.3,7.3z"/>
			<path class="st0" d="M5.7,7.5C4.3,7.3,2.9,6.8,2.2,5.9c0,0-2.8-2.2-1.8,0.6C1,8.2,3.6,8.3,5.7,8.1C6.1,8.1,6.1,7.5,5.7,7.5z"/>
			<path class="st0" d="M7.2,6C7,4.7,6.6,2.6,5.2,1.1c0,0-0.7-2,1.2-0.7c1.7,1.2,2.9,2.8,1.4,5.7C7.7,6.4,7.2,6.3,7.2,6z"/>
		</g>
		<path class="st0" d="M5,9.1C5.1,9,5,8.8,4.9,8.8c-0.7,0-2.5-0.1-2.7,0C2,8.8,0.7,10,2.3,10.5C3.3,10.9,4.5,9.7,5,9.1z"/>
		<path class="st0" d="M9,6C8.9,6.1,8.7,6,8.7,5.9c0.1-0.7,0.4-2.5,0.5-2.7s1.5-1.3,1.7,0.4C11.1,4.7,9.6,5.6,9,6z"/>
	</g>
	<path class="st0" d="M78.3,46.5"/>
	<path class="st0" d="M137,46.7h-0.9c-0.5,0-0.9,0-1.4,0.1c-0.5,0-1.1,0.1-1.6,0.1h-9.6l-1-0.2h-5.8c-0.5,0-1,0-1.5-0.1   c-0.5,0-1-0.1-1.4-0.1c-0.3,0-0.6,0.1-0.8,0.1c-0.2,0.1-0.4,0.1-0.7,0.1s-0.7-0.1-1-0.1c-0.3-0.1-0.6-0.1-0.9-0.1h-0.1   c-0.3,0-0.7,0-1.1,0.1c-0.4,0-0.8,0.1-1.3,0.1h-0.3c-0.7,0-1.4-0.1-2.1-0.1c-0.4-0.1-0.9-0.1-1.3-0.1h-4.4c-0.1,0-0.2,0-0.2,0   c-1,0.1-2,0.2-3,0.2s-2-0.1-3.1-0.2H76.9c-1-0.1-1.8-0.1-2.6-0.1c-0.9,0-1.8,0.1-2.6,0.2c-0.4,0.1-0.8,0.1-1.3,0.1   c-0.6,0-1.1,0-1.7-0.1c-0.5-0.1-1.1-0.1-1.6-0.1s-1,0-1.4,0.1c-0.3,0.1-0.6,0.1-0.9,0.1c-0.4,0-0.9,0-1.4-0.1   c-0.4,0-0.9-0.1-1.3-0.1h-0.5c-0.7,0.1-1.4,0.2-2,0.2c-0.8,0-1.4-0.1-2.1-0.3h-0.3c-0.1,0.1-0.3,0.1-0.4,0.1   c-0.4,0-0.7,0.1-1.1,0.1c-0.6,0-1.2,0.1-1.8,0.1c-0.4,0-0.7-0.1-1-0.1c-0.3-0.1-0.6-0.1-1-0.1h-3c-0.7,0-1.5,0-2.2,0.1   c-0.8,0-1.5,0.1-2.3,0.1c-1.1,0-2-0.1-2.8-0.3c-0.3,0.1-0.6,0.2-1,0.2c-0.4,0-0.8-0.1-1.2-0.2c-0.4,0-0.7-0.1-1-0.1   c-0.3,0-0.6,0-0.8,0.2l-0.2,0.2l-0.3-0.1c-0.6-0.2-1.3-0.3-2.1-0.3c-0.5,0-1,0.1-1.6,0.1c-0.5,0.1-1.1,0.1-1.7,0.1h-0.3   c-0.2,0-0.4,0-0.5-0.1c-0.1,0-0.1,0-0.1,0c-0.8,0.3-1.6,0.4-2.6,0.4s-1.9-0.1-2.8-0.2c-0.8-0.1-1.7-0.2-2.6-0.2h-0.4   c-1,0.1-2.1,0.1-3.4,0.1h-5.5l-0.2-0.2c-0.9-0.8-1.3-2-1.7-3.1c-0.4-1-0.7-2-1.4-2.7c-0.1-0.2-0.3-0.3-0.4-0.5   c-0.3-0.4-0.6-0.7-1-0.9c-2.2-1.1-4.7-2.5-4.7-5.4V28c-0.1-0.8-0.1-1.6,0-2.4c0-1-0.1-2.1-0.1-3.1c0-2.2,0.1-4.3,0.2-6.5   c0-1,0.1-1.9,0.1-2.9v-0.3l0.3-0.2c1.1-0.6,2.1-1,2.9-1.4c1.4-0.6,2.3-1,3.5-2.2c0.6-0.6,0.9-2.7,1.2-4.2C12.3,3.9,13,3.4,14,3.4   c0.5,0,0.9,0.1,1.3,0.3c0.1,0.1,0.2,0.1,0.4,0.1s0.4,0,0.6-0.1c0.5-0.2,0.9-0.3,1.3-0.3c0.4,0,0.9,0.1,1.4,0.3   c0.5,0.1,0.9,0.2,1.2,0.2c0.2,0,0.4-0.1,0.4-0.1c0.4-0.3,0.8-0.4,1.3-0.4c0.3,0,0.6,0.1,0.9,0.1c0.2,0.1,0.5,0.1,0.7,0.1   s0.3,0,0.5-0.1c0.4-0.1,0.9-0.2,1.5-0.2c0.4,0,0.8,0.1,1.2,0.1c0.3,0.1,0.5,0.1,0.8,0.1c1,0.1,2,0.1,3,0.2c1.3,0.1,2.7,0.2,4,0.2   h19.1c0.5,0,1,0,1.6-0.1c0.6-0.1,1.3-0.2,1.9-0.2c0.4,0,0.8,0,1.2,0.1c0.3,0.1,0.8,0.1,1.2,0.1c0.5,0,1.1,0,1.7-0.1   c0.6,0,1.3-0.1,1.9-0.1c0.7,0,1.2,0,1.8,0.2C65.4,3.9,66,4,66.7,4h51.8c0.3,0,0.7,0,1-0.1c0.3,0,0.7-0.1,1.1-0.1   c0.3,0,0.6,0,0.8,0.1c0.2,0.1,0.3,0.1,0.5,0.1c0.4,0,0.7-0.1,1-0.2c0.3-0.1,0.7-0.2,1.1-0.2h1c0.8,0,1.5,0,2.2,0.1   c0.6,0.1,1.1,0.1,1.7,0.2c-0.1-0.6,0-1.3,0.1-1.9H91.9v1l-0.1-1H17.3c-1.8,0-3.3,0.1-4.7,0.1c-0.5,0.6-1,1.9-1.5,3.1   C10.5,6.6,10,7.8,9.5,8.3c-1.1,1.2-2.2,1.6-3.2,2.1c-0.9,0.4-1.7,0.7-2.7,1.6c-0.2,0.2-0.4,0.3-0.5,0.4c-0.6,0.5-0.7,0.6-0.7,1.4   v22.5c0,0.6,1.9,1.5,3,2c0.9,0.5,1.7,0.8,2.1,1.2c2.1,1.9,2.8,3.9,3.6,5.9c0.3,1,0.7,2,1.3,3.1h28.9c0.8,0,1.6,0,2.2-0.1h1.1   c0.5,0,1.1,0.1,1.7,0.1c0.6,0.1,1.1,0.1,1.7,0.1h0.8c0.5,0,0.9-0.1,1.4-0.1c1.2-0.1,2.5-0.2,3.7-0.2c0.6,0,1.2,0,1.8,0.1   c1,0.2,2.1,0.2,3.5,0.2h6c1.7,0.1,3.4,0.1,5.5,0.1h21.7c0.3,0,0.7,0,1.1-0.1c0.4,0,0.9-0.1,1.3-0.1c0.3,0,0.6,0.1,0.8,0.1   c0.7,0.1,1.5,0.2,2.5,0.2c0.8,0,1.6-0.1,2.4-0.1c0.8-0.1,1.7-0.1,2.5-0.1h0.8c0.4,0,0.8,0.1,1.2,0.1c0.6,0.1,1.1,0.1,1.7,0.1   c0.8,0,1.4-0.1,2-0.3l0.1-0.1h0.1c1.4,0.2,2.9,0.3,4.6,0.3s3.4-0.1,5-0.2c1.4-0.1,2.8-0.2,4.2-0.2h1.6h2.3h2.9   c0.5,0,1.1,0.1,1.6,0.1c0.6,0.1,1.2,0.1,1.8,0.1h1.4c0.5,0,1,0.1,1.5,0.1c0.3,0.1,0.5,0.1,0.7,0.1C136.5,48,136.7,47.3,137,46.7z"/>
	<path class="st0" d="M15.2,6.8c0.9,0,1.7,0,2.6-0.1c1,0,2-0.1,3-0.1c0.9,0,1.7,0,2.4,0.1c0,0,0,0,0.1,0c0.2,0,0.5-0.1,0.6-0.1   C24,6.5,24,6.4,24.1,6.3h-0.4c-0.3,0-0.6,0.1-0.9,0.1c-0.3,0.1-0.7,0.1-1.1,0.1h-6.9c-0.1,0.2-0.2,0.4-0.3,0.7   C14.7,7,14.9,6.8,15.2,6.8z"/>
	<path class="st0" d="M92.5,44.2v-0.7h-14H74c-1.4,0-2.9,0-4.4,0.2h-0.5c-0.5,0-1,0-1.5-0.1c-0.5,0-0.9-0.1-1.3-0.1   c-0.6,0-1,0.1-1.4,0.3l-0.2,0.1h-0.2c-0.3-0.1-0.7-0.1-1.2-0.1s-0.9,0.1-1.4,0.1c-0.5,0.1-1,0.1-1.5,0.1c-0.9,0-1.7-0.1-2.4-0.4   c-0.3,0.1-0.7,0.1-1.1,0.1c-0.5,0-1-0.1-1.4-0.1c-0.5-0.1-0.9-0.1-1.3-0.1c-0.3,0-0.5,0.1-0.7,0.1c-0.5,0.1-1.1,0.1-1.7,0.1   c-0.5,0-1.1-0.1-1.6-0.1c-0.5-0.1-0.9-0.1-1.4-0.1h-0.7c-1,0-2.1,0.1-3.1,0.1c-1,0.1-2.1,0.1-3.1,0.1c-1.1,0-2.1,0-3-0.1h-0.4   c-0.5,0-1,0-1.5,0.1c-0.5,0-1,0.1-1.6,0.1c-0.7,0-1.4,0-2-0.1c-0.6,0-1.2-0.1-1.8-0.1H16.9c-1.5,0-2.3-1.4-2.9-2.7l-0.2-0.4   c-0.2-0.3-2.1-2.2-2.7-2.7c-0.8-0.7-1.3-0.8-1.8-1c-0.7-0.2-1.3-0.4-2.2-1.6L7,35v-7.7c0-4-0.1-8.1,0-12.1v-0.4   c0.9-1,1.9-1.4,2.9-1.9c0.9-0.5,1.8-0.9,2.5-1.7c0.5-0.4,1.3-1.6,1.5-2.1C14,8.8,14,8.5,14.1,8.2c0-0.2,0.1-0.4,0.2-0.6   c-2,3.7-3.8,4.7-5.6,5.7C7.8,13.8,7,14.2,6.2,15v20.2c4.1,2.5,6.7,4.7,8.6,8.7c0.4,0.1,0.9,0.2,1.6,0.3c0.5,0.1,1.1,0.2,1.3,0.2   l5.9-0.2h54.8H92.5H93c9.3,0,18.9,0,28.4,0.1c0.7,0,1.4-0.1,2.1-0.2c0.3,0,0.6-0.1,0.9-0.1c-0.2,0-0.5-0.1-0.7-0.2   c-0.4-0.2-0.8-0.3-1.1-0.3c-0.1,0-0.1,0-0.2,0c-0.3,0.1-0.6,0.2-1,0.2s-0.8-0.1-1.2-0.2c-0.4,0-0.7-0.1-1-0.1h-0.1   c-1.1,0.1-2.2,0.1-3.6,0.1h-23"/>
	<path class="st0" d="M36.8,6.6c1.1-0.1,2.2-0.1,3.3-0.1h0.1c0.5,0,1,0.1,1.5,0.1c0.5,0.1,0.9,0.1,1.4,0.1c0.1,0,0.3-0.1,0.4-0.1   c0.2,0,0.3-0.1,0.4-0.1c-0.8,0-1.6-0.1-2.3-0.1c-1.5-0.1-2.6-0.1-3.7-0.1c-1.1,0-2,0-3,0.1c-0.3,0-0.7,0.1-1,0.1   c-0.4,0-0.7,0.1-1.1,0.1c0.4,0.1,0.7,0.1,1,0.1C34.9,6.7,36,6.7,36.8,6.6z"/>
	<path class="st0" d="M93.2,6.4c-0.6,0-1.2,0-1.7,0c-1.6,0-3.2,0-4.9-0.2c-0.8-0.1-1.7-0.1-2.5-0.1c-0.5,0-1,0.1-1.5,0.1   s-0.9,0.1-1.4,0.1c-0.4,0-0.8,0.1-1.2,0.1c-0.5,0-1.1,0.1-1.6,0.1h-0.1c-0.3,0-0.7-0.1-1-0.2c-0.3,0-0.6-0.1-0.8-0.1   c-0.1,0-0.1,0-0.2,0c-0.6,0.2-1.1,0.3-1.8,0.3c-0.5,0-0.9-0.1-1.4-0.1c-0.4-0.1-0.9-0.1-1.3-0.1c-0.5,0-0.8,0.1-1.2,0.2h-0.2   c-0.8-0.2-1.7-0.3-2.7-0.3s-1.9,0.1-2.9,0.2s-2,0.2-3,0.2c-0.6,0-1.2,0-1.7-0.1c-0.6-0.1-1.3-0.1-2.1-0.1h-6.5   c-0.4,0-0.8,0-1.2,0.1c-0.5,0-0.9,0.1-1.4,0.1h-4c0.3,0,0.7,0.1,1,0.1c0.7,0,1.4,0.1,2,0.1h45.3C93.2,6.7,93.2,6.6,93.2,6.4z"/>
	<path class="st0" d="M124.1,6.6c-0.9-0.1-1.9-0.1-2.9-0.1h-1.1c-0.4-0.1-0.7-0.2-1.2-0.2s-0.9,0-1.4,0.1c-0.5,0-1,0.1-1.5,0.1   c-0.6,0-1.1-0.1-1.6-0.3c-0.6,0.2-1.2,0.3-1.9,0.3c-0.6,0-1.1-0.1-1.6-0.1c-0.5-0.1-1-0.1-1.5-0.1c-0.6,0-1,0.1-1.4,0.2h-0.3   c0,0-0.1,0-0.2,0h-0.1c-0.1,0-0.1,0-0.2,0l0,0l-9.4-0.2c0,0-4.8,0-4.8,0.1s0.2,0.3,0.2,0.4l20.4,0.1c3.3,0,6.8,0,10.2-0.1   c0.2,0,0.4-0.1,0.7-0.2C124.5,6.6,124.1,6.6,124.1,6.6z"/>
	<path class="st0" d="M143.7,44.7c0.9-0.1,1.9-0.1,2.8-0.1h0.5c0,0,0,0,0,0c1.8-0.4,3.8-0.4,5.7-0.7c0.2-0.1,0.5-0.1,0.7-0.1   c-0.3,0-0.5,0-0.8,0c-0.5,0-1,0-1.4-0.1c-0.4,0.3-0.9,0.4-1.5,0.4c-0.5,0-1-0.1-1.4-0.2c-0.2-0.1-0.4-0.1-0.6-0.1   c-0.4,0-0.7,0.1-1,0.1c-0.3,0.1-0.7,0.1-1,0.1h-0.3c-0.7,0-1.5,0-2.2-0.1c-0.6-0.1-1.1-0.1-1.7-0.2c-0.3,0-0.7-0.1-1.1-0.1   c-0.1,0-0.1,0-0.2,0c-0.3,0-0.7,0.1-1.1,0.2c-0.4,0.1-0.8,0.2-1.3,0.2s-0.9-0.1-1.3-0.3c-0.1,0.1-0.3,0.2-0.5,0.2h-0.9   c-0.2,0-0.9,0-0.9,0c-0.6,0-1.1-0.1-1.6-0.1c-0.6-0.1-1.1-0.1-1.6-0.1c-0.7,0-1.3,0.1-1.9,0.3c-0.2,0.1-0.4,0.2-0.6,0.2   c0.1,0,0.1,0,0.2,0c0.4,0,0.9,0,1.3,0.1c0.4,0,0.7,0.1,1.1,0.1c0.4,0,0.8-0.1,1.1-0.3c0.1-0.1,0.3-0.1,0.4-0.1   c0.2,0,0.3,0.1,0.4,0.1c0.1,0,0.1,0,0.1,0c1.8,0.2,3.7,0.3,6.1,0.3C140.7,44.4,142.3,44.3,143.7,44.7z"/>
	<path class="st0" d="M159.7,6.5c-0.3,0-0.5,0-0.8,0h-7.7c-0.2,0-0.5,0-0.7-0.1c-3.1,0.2-6.2,0.3-9.2,0.5h18.4   C159.6,6.8,159.7,6.6,159.7,6.5z"/>
	<path class="st0" d="M130.5,6.5c-0.9,0.1-2,0.1-3.2,0.1h-0.5c0.8,0.3,1.7,0.3,2.6,0.3h1.9C131,6.8,130.7,6.7,130.5,6.5z"/>
	<path class="st0" d="M127.4,44.2c0.1,0,0.3,0,0.4,0c-0.1,0-0.1,0-0.2,0.1C127.5,44.2,127.4,44.2,127.4,44.2z"/>
	<polygon class="st0" points="27.2,6.5 27.2,6.5 27.4,6.5  "/>
</g>
<g>
	<g>
		<g>
			<path class="st0" d="M234.8,7.4c-0.3,0.4,0.1,0.8,0.5,0.6c1.1-0.6,2.8-1.4,4.2-2.4c2.5-1.7,2.9-4.6,0.8-4.2     C238.8,1.8,236.1,5.4,234.8,7.4z"/>
			<path class="st0" d="M234.6,6.8c0.2-1.4,0.6-2.9,1.5-3.5c0,0,2.2-2.8-0.6-1.8c-1.6,0.6-1.7,3.2-1.5,5.3     C234,7.2,234.6,7.2,234.6,6.8z"/>
			<path class="st0" d="M236.1,8.3c1.2-0.2,3.4-0.6,4.8-2c0,0,2-0.7,0.7,1.2c-1.2,1.8-2.8,2.9-5.6,1.4     C235.7,8.8,235.8,8.4,236.1,8.3z"/>
		</g>
		<path class="st0" d="M233,6.1c0.1,0.1,0.3,0,0.3-0.1c0-0.7,0.1-2.6,0-2.7c-0.1-0.2-1.3-1.5-1.8,0C231.3,4.4,232.5,5.6,233,6.1z"/>
		<path class="st0" d="M236,10.1c-0.1-0.1,0-0.3,0.2-0.3c0.7,0.1,2.5,0.4,2.6,0.5c0.2,0.1,1.3,1.6-0.4,1.8    C237.4,12.2,236.4,10.8,236,10.1z"/>
	</g>
	<g>
		<g>
			<path class="st0" d="M234.7,41.6c-0.4-0.3-0.8,0.2-0.6,0.6c0.6,1.1,1.4,2.8,2.4,4.2c1.6,2.5,4.6,3,4.2,0.8     C240.2,45.6,236.6,43,234.7,41.6z"/>
			<path class="st0" d="M235.3,41.4c1.4,0.2,2.8,0.6,3.5,1.5c0,0,2.8,2.2,1.8-0.6c-0.6-1.6-3.1-1.7-5.2-1.5     C234.9,40.8,234.8,41.4,235.3,41.4z"/>
			<path class="st0" d="M233.7,42.9c0.2,1.3,0.6,3.4,2,4.9c0,0,0.7,2-1.2,0.7c-1.7-1.2-2.9-2.8-1.4-5.7     C233.3,42.5,233.7,42.6,233.7,42.9z"/>
		</g>
		<path class="st0" d="M235.9,39.8c-0.1,0.1,0,0.3,0.1,0.3c0.7,0,2.5,0.1,2.7,0s1.5-1.3,0-1.8C237.6,38,236.4,39.3,235.9,39.8z"/>
		<path class="st0" d="M232,42.9c0.1-0.1,0.3,0,0.3,0.2c-0.1,0.7-0.4,2.5-0.5,2.7s-1.5,1.3-1.7-0.4C229.9,44.3,231.3,43.3,232,42.9z    "/>
	</g>
	<path class="st0" d="M239.9,24.2c-0.2-2.1-0.1-4.2,0-6.2c0-0.8,0.1-1.7,0.1-2.5c0-1.5-0.7-1.8-1.8-2.2c-0.7-0.2-1.4-0.5-2-1   c-2.1-1.7-3.2-3.7-4.6-6c-0.2-0.3-0.4-0.7-0.6-1.1c-0.6-1.1-1.3-2.4-2.1-3.2H125.2c0.1,0.5,0,1-0.1,1.5c0.1,0,0.1,0,0.2,0   c0.4,0,0.8,0.1,1.1,0.2c0.2,0,0.3,0,0.5,0c0.3,0,0.5,0,0.7,0.1c0.1,0,0.2,0,0.2,0c0.6,0,1.2,0.1,1.6,0.3h48.1c0.3,0,0.7,0,1-0.1   c0.3,0,0.7-0.1,1.1-0.1c0.3,0,0.6,0,0.8,0.1c0.2,0.1,0.3,0.1,0.5,0.1c0.4,0,0.7-0.1,1-0.2c0.3-0.1,0.7-0.2,1.1-0.2h1   c0.8,0,1.5,0,2.2,0.1C188,3.9,190,4,191.9,4h0.7c0.9,0,1.8-0.1,2.7-0.1c0.8-0.1,1.6-0.1,2.4-0.1h0.1c0.5,0,1,0.1,1.5,0.1   c0.5,0.1,0.9,0.1,1.4,0.1h28l0.2,0.3c2.3,4.8,4.7,7.7,8.6,10.5l0.2,0.2v0.3c0,0.6,0.1,1.1,0.2,1.6c0.1,0.6,0.3,1.2,0.3,2.2v4.2   c0,3.4,0,6.9,0.1,10.4c0,1.8-2.2,2.6-4.1,3.4c-1.1,0.4-2.2,0.8-2.6,1.3c-1.2,1.2-1.8,2.4-2.4,3.6c-0.5,0.8-0.9,1.7-1.6,2.6   c-0.2,0.3-0.4,0.5-0.7,0.7c-0.1,0.1-0.3,0.2-0.4,0.3l-0.3,0.3l-0.3-0.2c-0.1-0.1-0.3-0.1-0.5-0.1c-0.2,0-0.4,0.1-0.6,0.1   c-0.3,0.1-0.6,0.1-0.9,0.1h-0.2c-1.5,0-2.5,0.2-3.7,0.5c-1.1,0.3-2.3,0.6-4,0.6c-3,0-5.8-0.1-8.5-0.2c-1-0.1-2-0.1-3.2-0.1   c-1.3,0-2.6,0.1-4,0.1h-5.2c-0.5,0-0.9,0-1.4,0.1c-0.5,0-1.1,0.1-1.6,0.1h-9.6l-1-0.2h-5.8c-0.5,0-1,0-1.5-0.1   c-0.5,0-1-0.1-1.4-0.1c-0.3,0-0.6,0.1-0.8,0.1c-0.2,0.1-0.4,0.1-0.7,0.1s-0.7-0.1-1-0.1c-0.3-0.1-0.6-0.1-0.9-0.1h-0.1   c-0.3,0-0.7,0-1.1,0.1c-0.4,0-0.8,0.1-1.3,0.1h-0.3c-0.7,0-1.4-0.1-2.1-0.1c-0.4-0.1-0.9-0.1-1.3-0.1h-4.4c-0.1,0-0.2,0-0.2,0   c-1,0.1-2,0.2-3,0.2s-2-0.1-3.1-0.2h-15.8c-0.2,0.1-0.3,0.1-0.5,0.2c-0.4,0.3-0.8,0.5-1.3,0.6c0.2,0.4,0.4,0.8,0.5,1.2   c0.1,0,0.2,0.1,0.3,0.1c0.3,0,0.6,0.1,0.9,0.1h14.8c0.3,0,0.7,0,1.1-0.1c0.4,0,0.9-0.1,1.3-0.1c0.3,0,0.6,0.1,0.8,0.1   c0.7,0.1,1.5,0.2,2.5,0.2c0.8,0,1.6-0.1,2.4-0.1c0.8-0.1,1.7-0.1,2.5-0.1h0.8c0.4,0,0.8,0.1,1.2,0.1c0.6,0.1,1.1,0.1,1.7,0.1   c0.8,0,1.4-0.1,2-0.3l0.1-0.1h0.1c1.4,0.2,2.9,0.3,4.6,0.3s3.4-0.1,5-0.2c1.4-0.1,2.8-0.2,4.2-0.2h1.6h2.3h2.9   c0.5,0,1.1,0.1,1.6,0.1c0.6,0.1,1.2,0.1,1.8,0.1h1.4c0.5,0,1,0.1,1.5,0.1c0.5,0.1,0.9,0.1,1.4,0.1c0.8,0,1.4-0.1,1.9-0.3l0.2-0.1   h0.2c1.2,0.3,2.6,0.4,4.1,0.4c1.6,0,3.2-0.2,4.7-0.3h0.2c0.3,0,0.5-0.1,0.8-0.1c0.5,0,1.1-0.1,1.6-0.1c0.4,0,0.8,0,1.1,0.1   c1.2,0.4,2.5,0.4,3.4,0.4h4.8c1.4,0,2.3,0,3.3-0.1c1-0.1,2.1-0.2,3.7-0.2c0.4-0.5,0.7-1.2,1.1-1.8c0.4-0.8,0.8-1.5,1.3-2   c0.7-0.7,1.2-1.5,1.7-2.4c0.5-0.9,1.1-1.9,1.9-2.7c0.4-0.4,1.4-1,2.9-1.8c0.7-0.4,1.5-0.9,1.8-1.1c0.4-0.4,0.8-0.6,1.2-0.8   c0.7-0.5,1.1-0.7,1.1-1.6V34c0.1-1.5,0.1-1.7,0.7-3.2c-0.3-1.3-0.2-2.6-0.1-3.9C239.9,25.9,240,25.1,239.9,24.2z"/>
	<path class="st0" d="M102.2,43.7c-0.4,0-0.9,0-1.3,0c-1.1,0-2.1,0-3-0.1h-0.4c-0.5,0-1,0-1.5,0.1c-0.5,0-1,0.1-1.6,0.1   c-0.7,0-1.4,0-2-0.1c-0.6,0-1.2-0.1-1.8-0.1H78c-0.1,0.3-0.2,0.5-0.3,0.8l4.8-0.2h12.2c0.7,0,1.3,0,2,0   C98.6,44.1,100.4,43.9,102.2,43.7z"/>
	<path class="st0" d="M130,43.6c-0.5,0-0.9,0.1-1.4,0.1h-0.5c-0.5,0-1,0-1.5-0.1c-0.5,0-0.9-0.1-1.3-0.1c-0.6,0-1,0.1-1.4,0.3   l-0.2,0.1h-0.2c-0.3-0.1-0.7-0.1-1.2-0.1c-0.1,0-0.3,0-0.4,0c0.1,0.1,0.3,0.2,0.4,0.4h7.7C130,44,130,43.8,130,43.6z"/>
	<path class="st0" d="M182.7,43.8c-0.4-0.2-0.8-0.3-1.1-0.3c-0.1,0-0.1,0-0.2,0c-0.3,0.1-0.6,0.2-1,0.2c-0.4,0-0.8-0.1-1.2-0.2   c-0.4,0-0.7-0.1-1-0.1h-0.1c-1.1,0.1-2.2,0.1-3.6,0.1h-35.4c0,0.2-0.1,0.5-0.2,0.7H152c9.3,0,18.9,0,28.4,0.1   c0.7,0,1.4-0.1,2.1-0.2c0.3,0,0.6-0.1,0.9-0.1C183.2,44,182.9,43.9,182.7,43.8z"/>
	<path class="st0" d="M91.8,6.6c0.4,0.1,0.7,0.1,1,0.1c1.1,0,2.2,0,3-0.1c1.1-0.1,2.2-0.1,3.3-0.1h0.1c0.5,0,1,0.1,1.5,0.1   c0.5,0.1,0.9,0.1,1.4,0.1c0.1,0,0.3-0.1,0.4-0.1c0.2,0,0.3-0.1,0.4-0.1c-0.2,0-0.5,0-0.7,0c-2.9,0-5.7,0-8.6,0   c-0.2,0-0.5,0.1-0.7,0.1C92.5,6.5,92.2,6.6,91.8,6.6z"/>
	<path class="st0" d="M235.4,15.4c-0.9-0.6-1.6-1-2.1-1.3c-1.2-0.6-1.7-0.9-2.6-2.5c-0.1-0.2-0.3-0.6-0.6-1   c-0.4-0.6-0.8-1.3-0.9-1.5c-0.4-0.8-0.8-1.3-1.4-1.6c2.4,4.2,3.5,6.1,7.8,8.4v-0.3L235.4,15.4z"/>
	<path class="st0" d="M235.6,15.9v3c0.1,2.3,0.1,4.4,0,6.6v2c0.2-3.7,0.3-7.4,0.4-11.4C235.9,16,235.8,16,235.6,15.9z"/>
	<path class="st0" d="M235.6,27.5c-0.1,1.7-0.3,3.5-0.4,5.3C235.6,31,235.6,29.4,235.6,27.5L235.6,27.5z"/>
	<path class="st0" d="M150.5,6.4c-1.6,0-3.2,0-4.9-0.2c-0.8-0.1-1.7-0.1-2.5-0.1c-0.5,0-1,0.1-1.5,0.1s-0.9,0.1-1.4,0.1   c-0.4,0-0.8,0.1-1.2,0.1c-0.5,0-1.1,0.1-1.6,0.1h-0.1c-0.3,0-0.7-0.1-1-0.2c-0.3,0-0.6-0.1-0.8-0.1c-0.1,0-0.1,0-0.2,0   c-0.6,0.2-1.1,0.3-1.8,0.3c-0.5,0-0.9-0.1-1.4-0.1c-0.2-0.1-0.4-0.1-0.7-0.1c0.1,0.2,0.1,0.3,0.1,0.5h20.6V6.4H150.5z"/>
	<path class="st0" d="M120.7,6.6c-0.4,0-0.8,0-1.2-0.1c-3.4,0-6.8,0-10.1,0c0,0,0,0,0,0c-0.5,0-0.9,0.1-1.4,0.1h-4   c0.3,0,0.7,0.1,1,0.1c0.7,0,1.4,0.1,2,0.1h13.7C120.6,6.7,120.7,6.7,120.7,6.6z"/>
	<path class="st0" d="M183.1,6.6c-0.9-0.1-1.9-0.1-2.9-0.1h-1.1c-0.4-0.1-0.7-0.2-1.2-0.2s-0.9,0-1.4,0.1c-0.5,0-1,0.1-1.5,0.1   c-0.6,0-1.1-0.1-1.6-0.3c-0.6,0.2-1.2,0.3-1.9,0.3c-0.6,0-1.1-0.1-1.6-0.1c-0.5-0.1-1-0.1-1.5-0.1c-0.6,0-1,0.1-1.4,0.2h-0.3   c0,0-0.1,0-0.2,0h-0.1c-0.1,0-0.1,0-0.2,0l0,0l-9.4-0.2c0,0-4.8,0-4.8,0.1s0.2,0.3,0.2,0.4l20.4,0.1c3.3,0,6.8,0,10.2-0.1   c0.2,0,0.4-0.1,0.7-0.2C183.5,6.6,183.1,6.6,183.1,6.6z"/>
	<path class="st0" d="M234.9,33.9l-0.2,0.1c-4.3,1.9-6.6,4.1-7.5,7c-0.4,1.3-2,1.5-3.1,1.6H224c-0.9,0.1-1.4,0.3-1.9,0.5   c-0.7,0.3-1.3,0.5-2.4,0.6c-0.3,0-0.6,0-0.9,0.1c-0.4,0.1-0.8,0.2-1.2,0.2c-0.3,0-0.5,0-0.7-0.1c-0.6-0.2-1.1-0.3-1.8-0.3   c-0.6,0-1.1,0-1.7,0.1c-0.6,0-1.2,0.1-1.8,0.1c-0.5,0-1,0-1.4-0.1c-0.4,0.3-0.9,0.4-1.5,0.4c-0.5,0-1-0.1-1.4-0.2   c-0.2-0.1-0.4-0.1-0.6-0.1c-0.4,0-0.7,0.1-1,0.1c-0.3,0.1-0.7,0.1-1,0.1h-0.3c-0.7,0-1.5,0-2.2-0.1c-0.6-0.1-1.1-0.1-1.7-0.2   c-0.3,0-0.7-0.1-1.1-0.1c-0.1,0-0.1,0-0.2,0c-0.3,0-0.7,0.1-1.1,0.2c-0.4,0.1-0.8,0.2-1.3,0.2s-0.9-0.1-1.3-0.3   c-0.1,0.1-0.3,0.2-0.5,0.2h-0.9c-0.2,0-0.9,0-0.9,0c-0.6,0-1.1-0.1-1.6-0.1c-0.6-0.1-1.1-0.1-1.6-0.1c-0.7,0-1.3,0.1-1.9,0.3   c-0.2,0.1-0.4,0.2-0.6,0.2c0.1,0,0.1,0,0.2,0c0.4,0,0.9,0,1.3,0.1c0.4,0,0.7,0.1,1.1,0.1c0.4,0,0.8-0.1,1.1-0.3   c0.1-0.1,0.3-0.1,0.4-0.1c0.2,0,0.3,0.1,0.4,0.1s0.1,0,0.1,0c1.8,0.2,3.7,0.3,6.1,0.3c1.5,0,3.1-0.1,4.5,0.3   c0.9-0.1,1.9-0.1,2.8-0.1h0.5c0.8,0,1.5,0,2.1,0.1h0.3c0.3,0,0.5-0.1,0.8-0.1c0.3-0.1,0.7-0.1,1-0.1h0.4c0.4,0.1,0.9,0.1,1.4,0.1   c0.6,0,1.2-0.1,1.8-0.1c0.6-0.1,1.2-0.1,1.9-0.1c1.1,0,2.3,0.1,3.4,0.1c0.7,0.1,1.3,0.1,2,0.1h0.1c0.2,0,0.3,0,0.3,0   c0.2-0.1,0.5-0.2,0.8-0.2c0.2,0,0.5,0,0.7,0.1h0.1c0.4,0.1,0.6,0.1,0.9,0.1c1.2,0,1.8-0.8,2.8-2.7l0.1-0.1c1.4-2.8,2.6-5.2,8.1-7.3   c0.1-0.6,0.1-1.1,0.2-1.7c-0.1,0.3-0.1,0.5-0.2,0.8L234.9,33.9z"/>
	<path class="st0" d="M227.4,6.7c-0.4,0-0.7-0.1-1.1-0.1c-1.2-0.1-2.5-0.2-3.8-0.2c-0.3,0-0.5,0-0.8,0.1s-0.6,0.2-1,0.2h-0.3   c-0.7-0.1-1.5-0.2-2.5-0.2h-7.7c-0.3,0-0.7-0.1-1.1-0.1c-0.5-0.1-1-0.1-1.5-0.1c-0.7,0-1.2,0-1.7,0.2c-0.2,0.1-0.4,0.1-0.7,0.1   c-0.4,0-0.7,0-1.1-0.1c-0.3,0-0.5-0.1-0.7-0.1s-0.3-0.1-0.5-0.1c-0.1-0.1-0.3-0.1-0.4-0.1c-0.4,0.1-0.8,0.2-1.3,0.2   c-0.4,0-0.9-0.1-1.5-0.3C199.6,6,199.5,6,199.3,6s-0.4,0.1-0.7,0.1s-0.6,0.1-0.9,0.1h-1c-0.6,0-1.1,0-1.7,0.1   c-0.6,0-1.2,0.1-1.8,0.1s-1.2-0.1-1.7-0.2c-1.5,0.3-3.1,0.4-5.2,0.4h-0.5c0.8,0.3,1.7,0.3,2.6,0.3h36.4c0.9,0,2,0,3,0.6   c0-0.1-0.1-0.1-0.1-0.2L227.4,6.7z"/>
	<path class="st0" d="M186.4,44.2c0.1,0,0.3,0,0.4,0c-0.1,0-0.1,0-0.2,0.1C186.5,44.2,186.4,44.2,186.4,44.2z"/>
</g>
</g>
</svg>