<svg xmlns="http://www.w3.org/2000/svg" aria-hidden="true" focusable="false" role="presentation" class="doen-button__image" fill="currentColor" viewBox="0 0 170.08 49.95"><g><path d="M162.84 7.44a.39.39 0 0 0 .5.6 39.14 39.14 0 0 0 4.2-2.4c2.5-1.7 2.9-4.6.8-4.2-1.5.4-4.2 4-5.5 6ZM162.64 6.84c.2-1.4.6-2.9 1.5-3.5 0 0 2.2-2.8-.6-1.8-1.6.6-1.7 3.2-1.5 5.3a.3.3 0 0 0 .6 0ZM164.14 8.34a8.86 8.86 0 0 0 4.8-2s2-.7.7 1.2-2.8 2.9-5.6 1.4c-.3-.1-.2-.5.1-.6ZM161.04 6.14a.19.19 0 0 0 .3-.1 23.64 23.64 0 0 0 0-2.7c-.1-.2-1.3-1.5-1.8 0-.2 1.1 1 2.3 1.5 2.8ZM164.04 10.14c-.1-.1 0-.3.2-.3a20.07 20.07 0 0 1 2.6.5c.2.1 1.3 1.6-.4 1.8-1 .1-2-1.3-2.4-2Z"></path><g><path d="M162.74 41.64c-.4-.3-.8.2-.6.6a39.14 39.14 0 0 0 2.4 4.2c1.6 2.5 4.6 3 4.2.8-.5-1.6-4.1-4.2-6-5.6ZM163.34 41.44a5.41 5.41 0 0 1 3.5 1.5s2.8 2.2 1.8-.6c-.6-1.6-3.1-1.7-5.2-1.5-.5 0-.6.6-.1.6ZM161.74 42.94a9.14 9.14 0 0 0 2 4.9s.7 2-1.2.7c-1.7-1.2-2.9-2.8-1.4-5.7.2-.3.6-.2.6.1ZM163.94 39.84a.19.19 0 0 0 .1.3 23.85 23.85 0 0 0 2.7 0c.2-.1 1.5-1.3 0-1.8-1.1-.3-2.3 1-2.8 1.5ZM160.04 42.94c.1-.1.3 0 .3.2a27.13 27.13 0 0 1-.5 2.7c-.1.2-1.5 1.3-1.7-.4-.2-1.1 1.2-2.1 1.9-2.5Z"></path></g><g><path d="M7.24 43.84a.39.39 0 0 0-.5-.6 39.14 39.14 0 0 0-4.2 2.4c-2.5 1.7-2.9 4.6-.8 4.2 1.5-.3 4.2-3.9 5.5-6ZM7.44 44.44c-.2 1.4-.6 2.9-1.5 3.5 0 0-2.2 2.8.6 1.8 1.6-.6 1.7-3.2 1.5-5.3 0-.3-.6-.4-.6 0ZM5.94 42.94a8.86 8.86 0 0 0-4.8 2s-2 .7-.7-1.2 2.8-2.9 5.6-1.4c.3.2.2.6-.1.6ZM9.04 45.14a.19.19 0 0 0-.3.1 23.64 23.64 0 0 0 0 2.7c.1.2 1.3 1.5 1.8 0 .2-1-1-2.3-1.5-2.8ZM6.04 41.14c.1.1 0 .3-.2.3a20.07 20.07 0 0 1-2.6-.5c-.2-.1-1.3-1.6.4-1.8 1-.1 2 1.4 2.4 2Z"></path></g><g><path d="M6.34 7.34c.4.3.8-.2.6-.6a36.3 36.3 0 0 0-2.3-4.1c-1.7-2.6-4.6-3-4.2-.9.3 1.6 3.9 4.3 5.9 5.6ZM5.74 7.54a5.47 5.47 0 0 1-3.5-1.6s-2.8-2.2-1.8.6c.6 1.7 3.2 1.8 5.3 1.6a.3.3 0 0 0 0-.6ZM7.24 6.04a9.14 9.14 0 0 0-2-4.9s-.7-2 1.2-.7c1.7 1.2 2.9 2.8 1.4 5.7a.32.32 0 0 1-.6-.1ZM5.04 9.14a.19.19 0 0 0-.1-.3 23.85 23.85 0 0 0-2.7 0c-.2 0-1.5 1.2.1 1.7 1 .4 2.2-.8 2.7-1.4ZM9.04 6.04a.19.19 0 0 1-.3-.1 27.13 27.13 0 0 1 .5-2.7c.1-.2 1.5-1.3 1.7.4.2 1.1-1.3 2-1.9 2.4Z"></path></g><g><path d="M70.74 48.74c-2.1 0-3.8 0-5.5-.1h-6a18.33 18.33 0 0 1-3.5-.2 10.87 10.87 0 0 0-1.8-.1c-1.2 0-2.5.1-3.7.2-.5 0-.9.1-1.4.1h-.8a9.7 9.7 0 0 1-1.7-.1c-.6 0-1.2-.1-1.7-.1h-1.1a14.79 14.79 0 0 1-2.2.1h-28.9a15.84 15.84 0 0 1-1.3-3.1 13.87 13.87 0 0 0-3.6-5.9 11.85 11.85 0 0 0-2.1-1.2c-1.1-.5-3-1.4-3-2v-22.5c0-.8.1-.9.7-1.4.1-.1.3-.2.5-.4a8.67 8.67 0 0 1 2.7-1.6 9.23 9.23 0 0 0 3.2-2.1 12.17 12.17 0 0 0 1.6-3.1 15 15 0 0 1 1.5-3.1c1.4 0 2.9-.1 4.7-.1h139.6a14.77 14.77 0 0 1 2.1 3.2 10.91 10.91 0 0 0 .6 1.1c1.4 2.3 2.5 4.3 4.6 6a5.38 5.38 0 0 0 2 1c1.1.4 1.8.7 1.8 2.2 0 .8-.1 1.7-.1 2.5a42.76 42.76 0 0 0 0 6.2 12.43 12.43 0 0 1-.1 2.7 12.76 12.76 0 0 0 .1 3.9 7.41 7.41 0 0 0-.7 3.2v.2c0 .9-.4 1.1-1.1 1.6a4.18 4.18 0 0 0-1.2.8c-.3.2-1.1.7-1.8 1.1a15.19 15.19 0 0 0-2.9 1.8 12 12 0 0 0-1.9 2.7 10.39 10.39 0 0 1-1.7 2.4 7.69 7.69 0 0 0-1.3 2c-.4.6-.7 1.3-1.1 1.8a34.13 34.13 0 0 0-3.7.2 32.18 32.18 0 0 1-3.3.1h-4.8a10.79 10.79 0 0 1-3.4-.4 3.75 3.75 0 0 0-1.1-.1c-.5 0-1.1.1-1.6.1-.3 0-.5.1-.8.1h-.2c-1.5.1-3.1.3-4.7.3a17.28 17.28 0 0 1-4.1-.4h-.2l-.2.1a5 5 0 0 1-1.9.3 6.6 6.6 0 0 1-1.4-.1c-.5 0-1-.1-1.5-.1h-1.4a10.87 10.87 0 0 1-1.8-.1c-.5 0-1.1-.1-1.6-.1h-2.9l-1-1.2-1.3 1.2h-1.6c-1.4 0-2.8.1-4.2.2-1.6.1-3.3.2-5 .2a32.3 32.3 0 0 1-4.6-.3h-.1l-.1.1a6 6 0 0 1-2 .3 9.7 9.7 0 0 1-1.7-.1c-.4 0-.8-.1-1.2-.1h-.8a20.9 20.9 0 0 0-2.5.1c-.8 0-1.6.1-2.4.1a16.86 16.86 0 0 1-2.5-.2c-.2 0-.5-.1-.8-.1s-.9.1-1.3.1a4.48 4.48 0 0 1-1.1.1h-8.7Zm38.2-1.1 2 .2-.4-.9h9.6c.5 0 1.1-.1 1.6-.1a6.6 6.6 0 0 1 1.4-.1h5.2c1.4 0 2.7-.1 4-.1s2.2 0 3.2.1c2.7.1 5.5.2 8.5.2a14.07 14.07 0 0 0 4-.6 13.8 13.8 0 0 1 3.7-.5h.2a2.77 2.77 0 0 0 .9-.1c.2 0 .4-.1.6-.1a.75.75 0 0 1 .5.1l.3.2.3-.3c.1-.1.3-.2.4-.3a2.34 2.34 0 0 0 .7-.7 26.31 26.31 0 0 0 1.6-2.6 12.55 12.55 0 0 1 2.4-3.6 6.92 6.92 0 0 1 2.6-1.3c1.9-.8 4.1-1.6 4.1-3.4-.1-3.5-.1-7-.1-10.4v-4.2a10.58 10.58 0 0 0-.3-2.2 7.77 7.77 0 0 1-.2-1.6v-.3l-.2-.2a25 25 0 0 1-8.6-10.5l-.2-.3h-28a6.6 6.6 0 0 1-1.4-.1c-.5 0-1-.1-1.5-.1h-.1a19.27 19.27 0 0 0-2.4.1c-.9 0-1.8.1-2.7.1h-.7a56.33 56.33 0 0 1-5.8-.3 15.48 15.48 0 0 0-2.2-.1h-1a3.59 3.59 0 0 0-1.1.2 3 3 0 0 1-1 .2.9.9 0 0 1-.5-.1 2 2 0 0 0-.8-.1c-.4 0-.8.1-1.1.1a3.4 3.4 0 0 1-1 .1h-38.7a9 9 0 0 1-1.8-.2 5.24 5.24 0 0 0-1.8-.2c-.6 0-1.3.1-1.9.1a10.28 10.28 0 0 1-1.7.1 4.48 4.48 0 0 1-1.2-.1 4.87 4.87 0 0 0-1.2-.1 12.25 12.25 0 0 0-1.9.2 9.15 9.15 0 0 1-1.6.1h-19.1c-1.3 0-2.7-.1-4-.2-1-.1-2-.1-3-.2a2.2 2.2 0 0 1-.8-.1c-.4 0-.8-.1-1.2-.1a6.05 6.05 0 0 0-1.5.2.9.9 0 0 1-.5.1 1.7 1.7 0 0 1-.7-.1c-.3 0-.6-.1-.9-.1a2 2 0 0 0-1.3.4 1 1 0 0 1-.4.1 7.38 7.38 0 0 1-1.2-.2 3.93 3.93 0 0 0-1.4-.3 3.45 3.45 0 0 0-1.3.3 1.27 1.27 0 0 1-.6.1c-.2 0-.3 0-.4-.1a2.77 2.77 0 0 0-1.3-.3 1.61 1.61 0 0 0-1.8 1.4c-.3 1.5-.6 3.6-1.2 4.2a9.38 9.38 0 0 1-3.5 2.2c-.8.4-1.8.8-2.9 1.4l-.3.2v.3c0 1-.1 1.9-.1 2.9-.1 2.2-.2 4.3-.2 6.5 0 1 .1 2.1.1 3.1a9.64 9.64 0 0 0 0 2.4v5.7c0 2.9 2.5 4.3 4.7 5.4a2.84 2.84 0 0 1 1 .9c.1.2.3.3.4.5a7.69 7.69 0 0 1 1.4 2.7 7.26 7.26 0 0 0 1.7 3.1l.2.2h5.5c1.3 0 2.4 0 3.4-.1h.4a21.12 21.12 0 0 1 2.6.2 24.58 24.58 0 0 0 2.8.2 7.1 7.1 0 0 0 2.6-.4h.1a.75.75 0 0 0 .5.1h.3a9.15 9.15 0 0 0 1.7-.1c.6 0 1.1-.1 1.6-.1a6.65 6.65 0 0 1 2.1.3l.3.1.2-.2a1.08 1.08 0 0 1 .8-.2c.3 0 .6.1 1 .1a5 5 0 0 0 1.2.2 3 3 0 0 0 1-.2 11.43 11.43 0 0 0 2.8.3c.8 0 1.5-.1 2.3-.1a16.2 16.2 0 0 1 2.2-.1h3a3.08 3.08 0 0 1 1 .1c.3 0 .6.1 1 .1.6 0 1.2-.1 1.8-.1.4 0 .7-.1 1.1-.1a.6.6 0 0 0 .4-.1h.3a7.11 7.11 0 0 0 2.1.3 15 15 0 0 0 2-.2h.5c.4 0 .9.1 1.3.1a7.08 7.08 0 0 0 1.4.1 2.77 2.77 0 0 0 .9-.1 6.15 6.15 0 0 1 1.4-.1 8.6 8.6 0 0 1 1.6.1 9.7 9.7 0 0 0 1.7.1 5.28 5.28 0 0 0 1.3-.1 21.12 21.12 0 0 1 2.6-.2 24.4 24.4 0 0 1 2.6.1h3.6c1.1.1 2.1.2 3.1.2s2-.1 3-.2h4.6a5.7 5.7 0 0 1 1.3.1c.7 0 1.4.1 2.1.1h.3c.5 0 .9-.1 1.3-.1a4.48 4.48 0 0 1 1.1-.1h.1a2.77 2.77 0 0 1 .9.1c.3 0 .7.1 1 .1a1.48 1.48 0 0 0 .7-.1c.2 0 .5-.1.8-.1s.9.1 1.4.1a7.57 7.57 0 0 0 1.5.1h5.8Z"></path><path class="doen-button__frame" d="M126.24 44.44a54 54 0 0 1-6.1-.3h-.1c-.1 0-.2-.1-.4-.1a.6.6 0 0 0-.4.1 2 2 0 0 1-1.1.3c-.4 0-.7-.1-1.1-.1a5.7 5.7 0 0 0-1.3-.1h-.2a1.42 1.42 0 0 0 .6-.2 5.82 5.82 0 0 1 1.9-.3 9.15 9.15 0 0 1 1.6.1c.5 0 1 .1 1.6.1h1.8a.76.76 0 0 0 .5-.2 2.77 2.77 0 0 0 1.3.3 5.07 5.07 0 0 0 1.3-.2 5.16 5.16 0 0 1 1.1-.2h.2c.4 0 .8.1 1.1.1.6.1 1.1.1 1.7.2a16.2 16.2 0 0 0 2.2.1h.3a3.4 3.4 0 0 0 1-.1c.3 0 .6-.1 1-.1a1.27 1.27 0 0 1 .6.1 5.9 5.9 0 0 0 1.4.2 2.41 2.41 0 0 0 1.5-.4 6.15 6.15 0 0 0 1.4.1c.6 0 1.2-.1 1.8-.1a9.7 9.7 0 0 1 1.7-.1 5.23 5.23 0 0 1 1.8.3 1.48 1.48 0 0 0 .7.1 5 5 0 0 0 1.2-.2 2.77 2.77 0 0 1 .9-.1 7 7 0 0 0 2.4-.6 6.4 6.4 0 0 1 1.9-.5h.1c1.1-.1 2.7-.3 3.1-1.6.9-2.9 3.2-5.1 7.5-7l.2-.1.1-.3a21.09 21.09 0 0 0 .6-6v-2.1c.1-2.2.1-4.3 0-6.6v-3.3l-.2-.2c-.9-.6-1.6-1-2.1-1.3a4.8 4.8 0 0 1-2.6-2.5 6.42 6.42 0 0 0-.6-1c-.4-.6-.8-1.3-.9-1.5-1-2.2-3-2.2-4.4-2.2h-36.4a7.43 7.43 0 0 1-2.6-.3h.5a26.16 26.16 0 0 0 5.2-.4 8.81 8.81 0 0 0 1.7.2c.6 0 1.2-.1 1.8-.1a9.7 9.7 0 0 1 1.7-.1h1c.3 0 .6-.1.9-.1s.5-.1.7-.1.3 0 .4.1a4.94 4.94 0 0 0 1.5.3 5.07 5.07 0 0 0 1.3-.2.6.6 0 0 1 .4.1c.2 0 .3.1.5.1s.4.1.7.1a4.1 4.1 0 0 0 1.1.1 1.48 1.48 0 0 0 .7-.1 4.42 4.42 0 0 1 1.7-.2 7.57 7.57 0 0 1 1.5.1c.4 0 .8.1 1.1.1h7.7a16.86 16.86 0 0 1 2.5.2h.3a3 3 0 0 0 1-.2 2.2 2.2 0 0 1 .8-.1c1.3 0 2.6.1 3.8.2.4 0 .7.1 1.1.1l.3.6c2.6 4.5 3.6 6.4 8.3 8.8-.1 6.5-.3 12-1 18.4-5.5 2.1-6.7 4.5-8.1 7.3l-.1.1c-1 1.9-1.6 2.7-2.8 2.7a3.08 3.08 0 0 1-.9-.1h-.1a1.7 1.7 0 0 0-.7-.1 1.88 1.88 0 0 0-.8.2h-.4a13.4 13.4 0 0 1-2-.1c-1.1 0-2.3-.1-3.4-.1a11.48 11.48 0 0 0-1.9.1c-.6 0-1.2.1-1.8.1a6.15 6.15 0 0 1-1.4-.1h-.4a3.4 3.4 0 0 0-1 .1c-.3 0-.5.1-.8.1h-.3a13.42 13.42 0 0 0-2.1-.1h-.5a26.2 26.2 0 0 0-2.8.1 16.78 16.78 0 0 0-4.5-.3Zm-108.5 0a10.5 10.5 0 0 1-1.3-.2 15.69 15.69 0 0 1-1.6-.3c-1.9-4-4.5-6.2-8.6-8.7v-20.2a10.06 10.06 0 0 1 2.5-1.7c1.9-1.1 3.9-2.2 6.1-6.8h6.9a3.75 3.75 0 0 0 1.1-.1c.3 0 .6-.1.9-.1h.4c-.1.1-.1.2-.2.3s-.4.1-.6.1h-.1a17.72 17.72 0 0 0-2.4-.1c-1 0-2 .1-3 .1a22.6 22.6 0 0 1-2.6.1c-.8 0-1 .8-1.1 1.4-.1.3-.1.6-.2.9a7.4 7.4 0 0 1-1.5 2.1 8.52 8.52 0 0 1-2.5 1.7 8.54 8.54 0 0 0-2.9 1.9v.4c-.1 4 0 8.1 0 12.1v7.7l.1.2a3.56 3.56 0 0 0 2.2 1.6 4.74 4.74 0 0 1 1.8 1 34.15 34.15 0 0 1 2.7 2.7l.2.4c.6 1.3 1.4 2.7 2.9 2.7h14.7c.6 0 1.2.1 1.8.1a12.75 12.75 0 0 0 2 .1c.6 0 1.1-.1 1.6-.1a7.57 7.57 0 0 1 1.5-.1h.4a28.12 28.12 0 0 0 3 .1c1 0 2.1 0 3.1-.1s2.1-.1 3.1-.1h.7a6.6 6.6 0 0 1 1.4.1c.5 0 1.1.1 1.6.1a9.15 9.15 0 0 0 1.7-.1c.2 0 .4-.1.7-.1a6.15 6.15 0 0 1 1.3.1c.4 0 .9.1 1.4.1a3.75 3.75 0 0 0 1.1-.1 6.05 6.05 0 0 0 2.4.4 7.57 7.57 0 0 0 1.5-.1c.5 0 .9-.1 1.4-.1a4.12 4.12 0 0 1 1.2.1h.2l.2-.1a2.9 2.9 0 0 1 1.4-.3c.4 0 .8.1 1.3.1a7.57 7.57 0 0 0 1.5.1h.5a33.14 33.14 0 0 1 4.4-.2h28.5c1.4 0 2.5 0 3.6-.1h.1c.3 0 .6.1 1 .1a5 5 0 0 0 1.2.2 3 3 0 0 0 1-.2h.2a2.61 2.61 0 0 1 1.1.3 1.85 1.85 0 0 0 .7.2c-.3 0-.6.1-.9.1a14.92 14.92 0 0 1-2.1.2c-9.5-.1-19.1-.1-28.4-.1h-56.4Zm96.7-.2h.4c-.1 0-.1 0-.2.1a.31.31 0 0 0-.2-.1Zm-21-37.4h-45.5c-.6 0-1.3-.1-2-.1-.3 0-.7-.1-1-.1h4c.5 0 .9-.1 1.4-.1a4.87 4.87 0 0 1 1.2-.1h6.5a13.42 13.42 0 0 1 2.1.1 9.15 9.15 0 0 0 1.7.1c1 0 2-.1 3-.2a28.25 28.25 0 0 1 2.9-.2 11.15 11.15 0 0 1 2.7.3h.2a4.3 4.3 0 0 1 1.2-.2 5.7 5.7 0 0 1 1.3.1c.5 0 .9.1 1.4.1a5.23 5.23 0 0 0 1.8-.3h.2c.2 0 .5.1.8.1a3.55 3.55 0 0 0 1 .2h.1a26.35 26.35 0 0 0 2.8-.2c.5 0 .9-.1 1.4-.1s1-.1 1.5-.1a20.9 20.9 0 0 1 2.5.1 41 41 0 0 0 4.9.2c.9 0 1.9 0 2.9.1h.6a5.21 5.21 0 0 1 1.4-.2 7.57 7.57 0 0 1 1.5.1c.5 0 1 .1 1.6.1a5.82 5.82 0 0 0 1.9-.3 4.15 4.15 0 0 0 1.6.3c.5 0 1-.1 1.5-.1a6.6 6.6 0 0 1 1.4-.1 4.3 4.3 0 0 1 1.2.2h1.1a27.15 27.15 0 0 1 2.9.1h.4a2.54 2.54 0 0 1-.7.2c-3.4.1-6.9.1-10.2.1h-7.2v-.1Zm-59.6-.1a3.75 3.75 0 0 1-1-.1c.4 0 .7-.1 1.1-.1s.7-.1 1-.1a29.08 29.08 0 0 1 3-.1c1.1 0 2.2 0 3.7.1.7 0 1.5.1 2.3.1-.1 0-.2.1-.4.1s-.3.1-.4.1a6.6 6.6 0 0 1-1.4-.1c-.5 0-1-.1-1.5-.1h-.1c-1.1 0-2.2 0-3.3.1a27.19 27.19 0 0 1-3 .1Zm-6.6-.2Zm2.7 0c.1 0 .1-.1.2-.2a.52.52 0 0 0 .4.2Z"></path></g></g><path class="doen-button__fill" d="M163.14 33.64c0-.3.1-.6.1-.9a20.28 20.28 0 0 0 .4-4.1c.3-4.3.5-8.4.5-13.1a13.42 13.42 0 0 1-5.3-3.8l-.1-.1a6.42 6.42 0 0 0-.6-1c-.4-.6-.8-1.3-.9-1.5a5 5 0 0 0-1-1.4 2.09 2.09 0 0 0-.4-.6l-.3-.6c-.3 0-.8-.1-1.1-.1l-3.8-.3a2.35 2.35 0 0 0-.8.2 3.55 3.55 0 0 1-1 .2h-.3a9.75 9.75 0 0 0-2.5-.2 10.87 10.87 0 0 0-1.8.1 3.75 3.75 0 0 0-1.1.1h-4.9c-.3 0-.7-.1-1.1-.1a7.57 7.57 0 0 0-1.5-.1 4.42 4.42 0 0 0-1.7.2 1.48 1.48 0 0 1-.7.1 4.1 4.1 0 0 1-1.1-.1c-.3 0-.5-.1-.7-.1s-.3-.1-.5-.1a.6.6 0 0 0-.4-.1 5.07 5.07 0 0 1-1.3.2 4.94 4.94 0 0 1-1.5-.3c-.1-.1-.2-.1-.4-.1s-.4.1-.7.1-.6.1-.9.1h-1a9.7 9.7 0 0 0-1.7.1c-.6 0-1.2.1-1.8.1a8.81 8.81 0 0 1-1.7-.2 12.65 12.65 0 0 1-2.8.3h-9.6a4.3 4.3 0 0 0-1.2-.2 6.6 6.6 0 0 0-1.4.1c-.5 0-1 .1-1.5.1a4.15 4.15 0 0 1-1.6-.3 5.82 5.82 0 0 1-1.9.3c-.6 0-1.1-.1-1.6-.1a7.57 7.57 0 0 0-1.5-.1 5.21 5.21 0 0 0-1.4.2h-.6c-1-.1-2-.1-2.9-.1a41 41 0 0 1-4.9-.2 20.9 20.9 0 0 0-2.5-.1c-.5 0-1 .1-1.5.1s-.9.1-1.4.1a26.35 26.35 0 0 1-2.8.2h-.1a3.55 3.55 0 0 1-1-.2c-.3 0-.6-.1-.8-.1h-.2a5.23 5.23 0 0 1-1.8.3c-.5 0-.9-.1-1.4-.1a5.7 5.7 0 0 0-1.3-.1 4.3 4.3 0 0 0-1.2.2h-.2a11.15 11.15 0 0 0-2.7-.3 28.25 28.25 0 0 0-2.9.2c-1 .1-2 .2-3 .2a9.15 9.15 0 0 1-1.7-.1 13.42 13.42 0 0 0-2.1-.1h-4.9c-.5 0-.9-.1-1.4-.1h-.3a5 5 0 0 0-1.2.2h-8.6c-1.5-.1-2.6-.1-3.7-.1a29.08 29.08 0 0 0-3 .1h-4.6c-.1 0-.1-.1-.2-.1l-.1.1h-6a.1.1 0 0 1 .1-.1h-.4c-.3 0-.6.1-.9.1h-8.1c-2.2 4.6-4.2 5.7-6.2 6.7a12.31 12.31 0 0 0-2.5 1.7v19.8c.1 0 .1.1.2.1v.3c4.1 2.5 6.7 4.7 8.6 8.7a15.69 15.69 0 0 0 1.6.3 10.5 10.5 0 0 0 1.3.2l5.9-.2h56.4c9.3 0 18.9 0 28.4.1a14.92 14.92 0 0 0 2.1-.2c.3 0 .6-.1.9-.1a1.85 1.85 0 0 1-.7-.2c-.1 0-.2-.1-.3-.1.3 0 .6-.1.9-.1h4.9c.3 0 .6.1.8.1h.4a3.53 3.53 0 0 0-1.4.3 1.42 1.42 0 0 1-.6.2h.2a5.7 5.7 0 0 1 1.3.1c.4 0 .7.1 1.1.1a2 2 0 0 0 1.1-.3.6.6 0 0 1 .4-.1c.2 0 .3.1.4.1h.1a54 54 0 0 0 6.1.3 16.78 16.78 0 0 1 4.5.3 26.2 26.2 0 0 1 2.8-.1h.5a13.42 13.42 0 0 1 2.1.1h.3c.3 0 .5-.1.8-.1a3.4 3.4 0 0 1 1-.1h.4a6.15 6.15 0 0 0 1.4.1c.6 0 1.2-.1 1.8-.1a11.48 11.48 0 0 1 1.9-.1c1.1 0 2.3.1 3.4.1a13.4 13.4 0 0 0 2 .1h.4a1.88 1.88 0 0 1 .8-.2 1.7 1.7 0 0 1 .7.1h.1a3.08 3.08 0 0 0 .9.1c1.2 0 1.8-.8 2.8-2.7l.1-.1c1.4-2.8 2.6-5.2 8.1-7.3a3.09 3.09 0 0 0 .2-.8Zm-155.6 2.1c.6.4 1.1.7 1.7 1.1a2.77 2.77 0 0 1-1.7-1.1Zm26.7 8.2Z"></path></svg>