<svg width="205" height="17" viewBox="0 0 205 17" fill="none" xmlns="http://www.w3.org/2000/svg">
    <path d="M188.242 8.14233C184.284 8.14233 180.325 8.11589 176.366 8.16436C175.532 8.17317 174.578 7.75016 173.847 8.56094C173.78 8.63585 173.504 8.64466 173.424 8.57416C172.461 7.68847 171.293 8.16877 170.241 8.16877C155.605 8.12911 140.965 8.15555 126.329 8.1203C125.183 8.11589 123.997 8.45959 122.843 7.90438C122.647 7.81185 122.116 8.36265 121.773 8.65788C121.719 8.70195 121.809 9.04565 121.907 9.09412C122.192 9.22631 122.687 9.44663 122.794 9.33647C123.311 8.81651 123.917 9.04124 124.474 9.03683C142.396 9.02362 160.322 9.02802 178.243 9.02802C178.956 9.02802 179.71 8.88702 180.298 9.46866C181.368 8.61822 182.42 9.63611 183.517 9.50832C184.917 9.34088 186.352 9.53036 187.77 9.45104C189.664 9.34529 191.599 9.82999 193.458 9.14259C195.29 9.79915 197.194 9.25716 199.044 9.48188C200.97 9.71543 202.78 8.88261 204.688 9.0104C204.786 9.01921 204.898 8.86058 205 8.78126C204.88 8.71517 204.764 8.6006 204.639 8.58297C202.548 8.2569 200.453 8.07183 198.326 8.11589C194.965 8.1908 191.604 8.14233 188.242 8.14233Z" fill="black"></path>
    <path d="M17.7578 8.67554C21.7166 8.67554 25.6753 8.70197 29.6341 8.6535C30.4677 8.64469 31.4217 9.06771 32.1529 8.25693C32.2197 8.18202 32.4961 8.1732 32.5764 8.24371C33.5393 9.1294 34.7073 8.6491 35.7594 8.6491C50.3952 8.68876 65.0354 8.66232 79.6711 8.69757C80.8168 8.70197 82.0027 8.35827 83.1573 8.91348C83.3535 9.00602 83.884 8.45521 84.2272 8.15998C84.2807 8.11592 84.1916 7.77222 84.0935 7.72375C83.8082 7.59155 83.3133 7.37123 83.2064 7.48139C82.6892 8.00135 82.0829 7.77662 81.5257 7.78103C63.6043 7.79425 45.6786 7.78984 27.7572 7.78984C27.0439 7.78984 26.2905 7.93085 25.7021 7.3492C24.6321 8.19964 23.58 7.18176 22.4834 7.30954C21.0835 7.47699 19.6481 7.28751 18.2304 7.36683C16.3357 7.47258 14.4009 6.98787 12.5375 7.67528C10.7052 7.01872 8.80164 7.56071 6.95155 7.33598C5.02568 7.10244 3.21571 7.93526 1.30767 7.80747C1.20959 7.79866 1.09814 7.95729 0.995605 8.0366C1.11597 8.1027 1.23188 8.21727 1.35671 8.23489C3.44753 8.56097 5.54281 8.74604 7.66929 8.70197C11.0351 8.62266 14.3965 8.67554 17.7578 8.67554Z" fill="black"></path>
    <path d="M124.376 8.84301C124.907 8.31424 125.357 9.50838 126.088 9.03249C126.374 8.84742 127.038 9.22637 127.314 9.0369C127.813 8.69319 128.402 8.72404 128.741 8.88708C129.387 9.19112 130.007 9.18231 130.653 9.16468C131.237 9.15146 131.884 9.36297 132.374 8.83861C133.127 9.45991 133.868 8.72845 134.634 8.81657C135.414 8.9047 136.212 8.83861 137.002 8.83861C137.849 8.83861 138.745 8.66235 139.525 8.88267C140.608 9.19112 141.607 9.3806 142.641 8.83861C144.241 8.97521 145.864 8.56981 147.46 9.0369C147.692 9.1074 148 8.88708 148.28 8.84301C148.771 8.7637 149.27 8.67557 149.765 8.67557C150.246 8.67557 150.728 8.79454 151.214 8.82098C151.294 8.82539 151.414 8.61388 151.454 8.48609C151.477 8.41559 151.405 8.24814 151.334 8.2173C151 8.07189 150.661 7.93969 150.309 7.83835C149.899 7.72378 149.413 8.03664 149.047 7.61803C148.548 7.054 148.387 8.03664 147.879 7.86038C147.233 7.63565 146.43 8.12036 145.828 7.49905C144.745 7.66209 143.617 7.1862 142.547 7.75022C142.28 7.89122 141.883 7.75903 141.571 7.84275C140.88 8.03223 140.292 7.50346 139.583 7.66209C138.896 7.81631 138.165 7.82072 137.452 7.81632C136.984 7.81191 136.44 8.04104 136.048 7.52108C135.985 7.43736 135.704 7.44617 135.566 7.50786C134.264 8.04986 132.766 7.59599 131.5 8.30543C131.331 8.39796 130.979 8.49931 130.947 8.45084C130.582 7.89563 130.078 8.52134 129.9 8.38474C129.467 8.06308 129.039 8.25696 128.625 8.16442C128.139 8.05426 127.809 8.39356 127.403 8.48609C127.109 8.55219 126.766 8.42881 126.445 8.38915C126.699 8.03664 126.815 7.72819 126.173 7.84716C125.816 7.91326 125.477 8.13798 125.125 8.1512C124.836 8.16002 124.537 7.84716 124.252 7.86038C123.222 7.90885 123.231 7.93088 123.338 6.88215C123.387 6.40185 123.391 5.90393 123.003 5.52057C122.874 5.39278 122.727 5.19008 122.584 5.18568C122.272 5.18127 121.746 5.2033 121.688 5.35753C121.528 5.78936 121.911 6.06256 122.294 6.1595C122.812 6.29169 122.758 6.52964 122.495 6.83368C122.277 7.08485 121.991 7.28754 121.786 7.55193C121.492 7.93088 121.046 7.98817 120.765 7.76784C120.36 7.45058 120.123 7.44618 119.793 7.81191C119.74 7.8736 119.45 7.82953 119.366 7.74141C119.285 7.65768 119.276 7.43296 119.334 7.30958C119.397 7.16857 119.579 7.08044 119.678 6.94825C120.146 6.2961 119.789 5.31787 119 5.1989C118.804 5.16805 118.474 5.406 118.354 5.6087C117.845 6.4327 117.894 6.41948 117.226 5.71886C117.047 5.53379 116.61 5.4765 116.33 5.53379C116.049 5.59107 115.777 5.83342 115.572 6.05815C115.514 6.11984 115.674 6.48998 115.821 6.58692C116.254 6.87775 116.682 7.26111 117.257 7.17298C117.734 7.09807 118.055 7.34042 118.224 7.6709C118.63 8.46406 119.45 8.88267 119.9 9.62736C120.016 9.81683 120.15 9.97106 120.311 9.5877C120.511 9.1118 120.823 8.68438 121.095 8.23933C121.104 8.22611 121.189 8.23493 121.207 8.25696C121.568 8.71963 121.965 9.16468 122.263 9.66701C122.375 9.85649 122.335 10.2178 122.219 10.4293C122.143 10.5703 121.742 11.3415 121.608 10.372C121.599 10.2971 120.984 10.187 120.747 10.2927C120.467 10.4161 120.636 11.3723 120.926 11.5353C121.354 11.7733 121.795 11.9584 122.308 11.8702C123.057 11.7468 123.52 11.1211 123.338 10.4293C123.271 10.1826 123.061 9.97106 123.017 9.7287C122.883 8.98842 122.994 8.87386 123.743 8.85623C123.913 8.84301 124.082 8.84301 124.376 8.84301Z" fill="black"></path>
    <path d="M90.5665 5.37507C89.7462 5.21204 89.8621 5.93469 89.6169 6.20789C89.3896 6.45465 89.2113 6.53397 89.0151 6.2123C88.8814 5.99197 88.819 5.70996 88.6406 5.53811C88.4668 5.36186 88.0789 5.12831 87.9808 5.19441C87.7401 5.36185 87.4593 5.69674 87.4726 5.94791C87.5083 6.51634 87.9452 7.02749 87.7802 7.64879C87.8917 7.6576 88.021 7.70167 88.119 7.66642C88.3598 7.56948 88.6183 7.47253 88.8145 7.3139C89.2023 6.98783 89.452 7.23899 89.6259 7.50779C89.9424 7.98368 90.1876 8.49923 90.4729 8.99716C90.6378 9.28798 90.8697 9.82997 90.99 9.80794C91.4358 9.72863 91.8816 9.51271 92.265 9.25273C92.7019 8.95309 92.956 8.34501 93.6559 8.50805C93.705 8.52126 93.7852 8.38907 93.8521 8.32298C93.7585 8.2745 93.6693 8.21722 93.5712 8.18638C93.3216 8.10706 93.0452 8.08062 92.8223 7.95724C92.5503 7.80742 92.3943 7.33594 92.0154 7.55626C91.8638 7.64439 91.9753 8.10706 91.8237 8.28332C91.6855 8.44195 91.3333 8.55211 91.1238 8.49483C90.4774 8.32298 91.2486 8.11147 91.1505 8.01893C90.7805 7.66201 90.5843 7.0407 90.9945 6.92614C91.6944 6.72785 91.6008 6.31364 91.4314 5.97875C91.2887 5.69674 90.8652 5.56896 90.5665 5.37507Z" fill="black"></path>
    <path d="M117.248 10.1784C117.31 9.72009 117.19 9.42486 116.637 9.51299C116.526 9.53061 116.405 9.53943 116.303 9.50858C116.16 9.46892 116.031 9.3852 115.893 9.3191C115.991 9.16047 116.08 8.87406 116.187 8.86524C116.615 8.8344 116.637 8.54357 116.552 8.29681C116.454 8.0104 116.263 7.57857 116.049 7.54331C115.581 7.45959 114.912 7.3979 114.618 7.65788C113.668 8.48629 112.718 8.27919 111.729 7.90024C111.238 7.71517 110.9 7.93549 110.547 8.17784C110.396 8.27919 110.271 8.41138 110.133 8.53035C110.284 8.63611 110.432 8.81677 110.592 8.82999C111.038 8.86965 111.635 8.66695 111.907 8.88287C112.38 9.25742 112.647 8.79474 113.008 8.82999C113.396 8.86524 113.762 8.81237 114.056 9.1781C114.199 9.35876 114.524 9.51739 114.747 9.49096C115.425 9.42045 115.656 9.67162 115.558 10.315C115.518 10.5882 115.505 10.879 115.567 11.1434C115.603 11.2888 115.803 11.4871 115.951 11.5047C117.021 11.6325 117.261 11.3725 117.248 10.1784Z" fill="black"></path>
    <path d="M69.1681 7.56105C67.046 7.30988 65.3386 8.10745 63.5598 7.84306C62.3205 7.65799 61.0901 7.38039 59.824 7.51698C59.6501 7.53461 59.4897 7.68884 59.3247 7.78137C59.4495 7.91356 59.5565 8.06779 59.6992 8.17354C60.2074 8.5569 60.7468 8.67147 61.3487 8.36302C61.5314 8.27048 61.741 8.20879 61.946 8.18676C62.637 8.10304 63.3013 8.39386 64.0369 8.21761C64.7813 8.04135 65.6551 8.01491 66.3729 8.23523C66.8766 8.38946 67.3536 8.01491 67.5988 8.21761C68.0134 8.5569 68.4147 8.54368 68.8382 8.50402C69.4712 8.44674 70.1533 8.74197 70.7418 8.19998C70.8933 8.06338 71.3168 8.25726 71.5576 8.15592C71.8117 8.05016 72.0569 8.93585 72.1683 8.17795C72.2084 7.88712 71.9989 7.15566 71.3748 7.82543C70.5857 7.17769 69.654 7.68443 69.1681 7.56105Z" fill="black"></path>
    <path d="M85.6672 10.4909C85.5825 9.70211 85.5469 8.90454 85.3864 8.13342C85.3017 7.72803 84.5394 7.75887 84.5616 7.17282C84.5037 7.2301 84.4056 7.27857 84.4012 7.34026C84.3387 8.19951 83.728 8.20833 83.0905 8.17748C82.9211 8.16867 82.7472 8.15104 82.5867 8.18189C82.4039 8.21714 82.2301 8.30527 82.0518 8.37137C82.1989 8.41543 82.3504 8.49915 82.4976 8.50356C83.0013 8.52118 83.5095 8.50356 84.0133 8.51237C84.1114 8.51237 84.2139 8.56965 84.312 8.59609C84.2451 8.71507 84.1916 8.83845 84.1114 8.94861C83.4828 9.80786 83.5318 10.5349 84.263 11.2311C84.5215 11.4779 84.6954 11.6101 85.0922 11.3677C85.7118 10.98 85.7787 10.9976 85.6672 10.4909ZM84.7623 8.98827C85.0208 9.56551 85.2571 9.95768 85.3463 10.3807C85.3686 10.4909 84.9673 10.7949 84.7355 10.8302C84.361 10.8874 83.9286 10.3102 84.0713 9.90921C84.1783 9.60517 84.4725 9.36281 84.7623 8.98827Z" fill="black"></path>
    <path d="M75.1061 8.50788C75.1952 8.48144 75.5965 8.33162 76.0111 8.26553C76.3811 8.20384 76.7645 8.22146 77.1434 8.21706C77.1835 8.21706 77.2147 8.30078 77.2638 8.32722C78.035 8.77227 78.619 8.47704 79.1183 7.86014C79.5686 8.41535 80.1481 8.63126 80.848 8.48144C80.9149 8.46822 81.0041 8.29637 80.9862 8.22146C80.955 8.08486 80.8659 7.87776 80.7723 7.85573C80.0902 7.71473 79.3278 7.38865 78.7349 7.56931C78.1197 7.75879 77.5446 7.50322 76.9071 7.77201C76.1894 8.07165 75.2443 7.82489 74.3973 7.85132C74.2234 7.85573 73.9381 7.98792 73.9113 8.1069C73.8177 8.50347 74.1209 8.52991 74.424 8.50788C74.5355 8.50347 74.6469 8.50788 75.1061 8.50788Z" fill="black"></path>
    <path d="M52.2855 8.15189C52.1428 8.04614 52.0001 7.85666 51.853 7.85225C50.9525 7.82582 50.0431 7.87869 49.147 7.82582C48.5095 7.79056 47.823 8.07698 47.2345 7.52618C47.123 7.42042 46.7084 7.55702 46.4766 7.66278C46.2181 7.78175 45.8213 7.98445 45.8079 8.17392C45.7723 8.72913 46.2849 8.51322 46.548 8.49119C47.5198 8.40746 48.5362 8.78642 49.4724 8.19596C49.6195 8.10342 49.9584 8.34577 50.2169 8.37221C50.8188 8.43831 51.4206 8.47356 52.0269 8.49559C52.0848 8.5 52.1473 8.34137 52.2855 8.15189Z" fill="black"></path>
    <path d="M56.36 7.43741C55.8786 7.51672 55.3837 7.53875 54.9335 7.69738C54.7641 7.75907 54.7061 8.12921 54.5991 8.35835C54.7596 8.30107 54.9201 8.19091 55.0761 8.19972C55.6111 8.23056 56.1594 7.9838 56.681 8.37598C56.8683 8.51698 57.2026 8.45529 57.4612 8.51257C57.8892 8.60952 58.0274 8.23497 58.277 8.04109C58.0363 7.86042 57.8178 7.59163 57.5503 7.52994C57.1803 7.44181 56.7702 7.50791 56.3734 7.50791C56.369 7.48147 56.3645 7.45944 56.36 7.43741Z" fill="black"></path>
    <path d="M89.4791 10.205C89.4569 11.1568 89.7689 11.5446 90.3395 11.5226C90.5535 11.5137 91.5343 10.8219 91.4674 10.7162C91.3381 10.4959 91.0484 10.3504 90.9548 10.1257C90.7631 9.66744 90.1479 9.95827 89.974 9.52203C89.7689 9.79964 89.5638 10.0861 89.4791 10.205Z" fill="black"></path>
    <path d="M86.7686 7.83458C86.6259 7.93593 86.3406 8.08575 86.1489 8.31489C86.0731 8.40301 86.1667 8.7379 86.2871 8.84806C86.4609 9.00229 86.88 9.19176 86.938 9.13007C87.7315 8.28404 87.7047 9.29752 88.0034 9.56191C88.106 9.65444 88.2352 9.71172 88.3556 9.78223C88.3913 9.63241 88.4715 9.47378 88.4492 9.33277C88.3601 8.76434 87.415 7.85221 86.7686 7.83458Z" fill="black"></path>
    <path d="M85.7743 6.02327C85.7386 5.70601 85.7921 5.424 85.6717 5.29621C85.5202 5.13318 85.3998 4.60881 84.9629 5.07589C84.7222 5.33587 84.3388 5.46366 84.0446 5.67957C83.6701 5.95277 83.5542 6.2436 83.9777 6.60933C84.1159 6.73271 84.1471 6.97947 84.2273 7.16895C84.2853 6.94422 84.3923 6.7239 84.3834 6.49917C84.3745 6.14225 84.4413 5.86905 84.7445 5.63551C85.0744 5.38434 85.2928 5.44603 85.4087 5.87786C85.4622 6.08056 85.5113 6.27885 85.5648 6.48154C85.645 6.30969 85.7252 6.12903 85.7743 6.02327Z" fill="black"></path>
    <path d="M119.281 10.6887C119.281 10.5213 119.294 10.3538 119.276 10.1908C119.268 10.0938 119.205 10.0013 119.165 9.90436C119.085 9.94843 119.005 9.98368 118.929 10.0321C118.661 10.1952 118.38 10.345 118.131 10.5301C118.068 10.5741 118.064 10.7592 118.1 10.8517C118.193 11.0897 118.309 11.3232 118.456 11.5347C118.536 11.6537 118.755 11.8344 118.795 11.8079C118.978 11.6934 119.183 11.5347 119.263 11.3497C119.343 11.1558 119.281 10.909 119.281 10.6887Z" fill="black"></path>
    <path d="M87.9189 11.5791C88.231 11.2618 88.4985 10.9842 88.7704 10.711C88.3647 10.5524 87.968 10.3717 87.5534 10.2572C87.4731 10.2351 87.2012 10.5392 87.2235 10.5788C87.4196 10.9137 87.6648 11.2266 87.9189 11.5791Z" fill="black"></path>
    <path d="M157.495 8.1684C157.442 8.22568 157.362 8.3094 157.277 8.39753C157.486 8.54735 157.687 8.7192 157.919 8.82936C157.972 8.8558 158.213 8.67954 158.222 8.5826C158.289 8.02298 157.852 8.20365 157.495 8.1684Z" fill="black"></path>
    <path d="M54.0464 8.06717C53.7744 7.93938 53.663 7.84244 53.556 7.84685C53.3153 7.86007 52.972 7.68822 52.9007 8.0892C52.8784 8.21699 52.9987 8.36681 53.0567 8.50781C53.3331 8.38443 53.6095 8.26105 54.0464 8.06717Z" fill="black"></path>
    <path d="M160.674 8.21719C160.558 8.0233 160.505 7.93958 160.451 7.85145C160.295 8.03212 160.139 8.21278 159.983 8.39344C160.077 8.4331 160.192 8.52564 160.255 8.49479C160.411 8.4331 160.54 8.30972 160.674 8.21719Z" fill="black"></path>
    <path d="M152.574 7.77656C152.458 7.86469 152.329 7.96604 152.199 8.06739C152.351 8.10264 152.507 8.18636 152.645 8.16433C152.801 8.1423 152.948 8.02773 153.095 7.95282C152.953 7.89994 152.806 7.85147 152.574 7.77656Z" fill="black"></path>
    <path d="M72.7122 8.10712C72.6899 8.16 72.6364 8.27897 72.5874 8.39795C72.681 8.43761 72.788 8.52133 72.8638 8.4993C72.9708 8.46845 73.06 8.3627 73.158 8.29219C73.0644 8.25254 72.9708 8.21288 72.7122 8.10712Z" fill="black"></path>
    <path d="M59.0528 7.67948C58.9993 7.65744 58.8789 7.60457 58.7586 7.5561C58.7184 7.64863 58.6337 7.75438 58.656 7.82929C58.6872 7.93505 58.7942 8.02318 58.8655 8.12012C58.9057 8.02758 58.9458 7.93945 59.0528 7.67948Z" fill="black"></path>
    <path d="M159.203 8.2919C159.158 8.24783 159.118 8.20818 159.082 8.17292C159.047 8.24783 158.993 8.31834 158.975 8.39765C158.971 8.42409 159.042 8.47256 159.082 8.50781C159.122 8.43731 159.163 8.3624 159.203 8.2919Z" fill="black"></path>
    <path d="M154.558 8.7238C154.602 8.76786 154.642 8.80752 154.678 8.84277C154.714 8.76786 154.767 8.69736 154.785 8.61804C154.789 8.59161 154.718 8.54314 154.678 8.50788C154.638 8.58279 154.598 8.6533 154.558 8.7238Z" fill="black"></path>
    <path d="M97.6593 8.54297H92.8179" stroke="black" stroke-miterlimit="10"></path>
    <path d="M92.6706 9.83515C94.2666 9.96734 96.2237 9.35044 97.842 10.7649C98.3769 10.408 98.8807 10.0731 99.3844 9.73821C100.062 10.6988 99.3844 11.1306 98.9253 11.6858C98.533 12.1617 98.2655 12.7346 97.8999 13.3294C98.0515 13.6731 98.2387 14.1094 98.4304 14.55C99.9818 14.3958 100.156 12.7302 101.284 12.0119C101.667 13.0122 101.471 13.9331 100.887 14.8673C101.248 15.5591 101.596 16.2201 102.006 17C103.223 16.6695 104.337 16.3655 105.247 16.1187C105.987 14.7087 104.346 13.6291 105.3 12.4261C106.807 12.7742 106.754 14.7175 108.403 15.2198C108.506 14.973 108.653 14.6293 108.898 14.0477C108.773 13.8274 108.733 13.1796 107.864 12.7698C106.968 12.3468 106.629 11.3333 106.927 10.1128C107.757 10.5181 108.43 10.8486 109.308 11.2761C109.99 10.8751 110.761 10.4256 111.706 9.8704C112.09 9.89684 112.799 9.58398 113.262 10.267C113.869 9.55754 115.759 10.1216 115.193 8.20036C115.077 8.09902 114.858 7.90513 114.591 7.66718C112.999 7.42924 111.154 8.1563 109.687 6.73743C108.96 6.89165 108.087 6.40254 107.458 7.17807C107.248 6.97097 107.039 6.76387 106.807 6.53473C107.552 5.83411 108.296 5.13349 108.983 4.48574C108.983 4.03188 108.983 3.68818 108.983 3.28279C108.581 3.28279 108.234 3.28279 107.868 3.28279C107.556 4.37118 106.669 4.93079 105.608 5.36262C105.488 5.22162 105.3 5.0057 105.1 4.77657C105.336 4.35355 105.594 3.88647 105.911 3.31804C105.911 2.86418 105.911 2.27812 105.911 1.83308C105.367 0.586056 104.123 0.660965 103.094 0C102.527 0.71384 101.97 1.40565 101.426 2.08865C102.278 2.86418 101.774 3.71462 101.926 4.89995C100.847 3.69699 100.058 2.81571 99.1615 1.81985C98.738 2.21203 98.2833 2.63505 97.7038 3.17263C98.5597 4.06713 99.3488 4.89554 100.227 5.81208C100.022 6.08968 99.8169 6.36288 99.5316 6.74624C99.3131 6.3717 99.1125 6.02799 99.0412 5.90902C98.0604 5.90902 97.4764 5.90902 96.8166 5.90902C95.3499 7.30586 93.482 7.78175 91.2708 7.6055C91.2441 7.97564 91.2173 8.31934 91.1816 8.75117C91.5472 9.02437 91.9663 9.324 92.6706 9.83515ZM101.908 9.68092C101.707 8.90539 101.515 8.17392 101.328 7.44686C101.449 7.51737 101.573 7.58346 101.694 7.65397C101.992 7.15604 102.291 6.65811 102.474 6.36288C103.16 6.36288 103.588 6.36288 103.646 6.36288C104.386 7.05029 104.908 7.5394 105.416 8.01529C105.416 8.41628 105.416 8.8393 105.416 9.37247C104.765 9.70736 104.101 10.0467 103.477 10.3683C102.929 10.126 102.496 9.9409 101.908 9.68092Z" fill="black"></path>
</svg>