<svg xmlns="http://www.w3.org/2000/svg" xmlns:xlink="http://www.w3.org/1999/xlink" width="2985" zoomAndPan="magnify" viewBox="0 0 2238.75 1586.999935" height="2116" preserveAspectRatio="xMidYMid meet" version="1.0"><defs><clipPath id="96a21a3c72"><path d="M 0 0.0898438 L 2238.5 0.0898438 L 2238.5 1365 L 0 1365 Z M 0 0.0898438 " clip-rule="nonzero"/></clipPath><clipPath id="e351e3c503"><path d="M 2360.460938 805.90625 C 2420.511719 907.925781 2425.410156 1038.398438 2361.933594 1148.1875 C 2268.015625 1310.632812 2060.003906 1366.308594 1897.363281 1272.515625 C 1648.910156 1126.527344 1327.367188 1167.003906 1119.304688 1364.425781 L 1119.160156 1364.425781 C 914.996094 1170.699219 600.402344 1124.53125 343.714844 1271.011719 C 241.589844 1330.984375 110.925781 1335.859375 1 1272.484375 C -161.640625 1178.667969 -217.367188 970.914062 -123.484375 808.476562 C 22.695312 560.394531 -17.855469 239.238281 -215.523438 31.445312 L -215.523438 31.300781 C -21.53125 -172.613281 24.671875 -486.773438 -121.984375 -743.160156 C -182.046875 -845.160156 -186.933594 -975.65625 -123.445312 -1085.429688 C -29.535156 -1247.90625 178.476562 -1303.589844 341.113281 -1209.796875 C 589.5625 -1063.835938 911.105469 -1104.316406 1119.179688 -1301.738281 L 1119.324219 -1301.738281 C 1329.683594 -1102.128906 1646.074219 -1065.289062 1897.386719 -1209.800781 C 2060.023438 -1303.59375 2268.035156 -1247.929688 2361.957031 -1085.476562 C 2425.433594 -975.679688 2420.53125 -845.164062 2360.460938 -743.144531 C 2213.824219 -486.757812 2260.054688 -172.636719 2454.023438 31.28125 L 2454.023438 31.421875 C 2260.027344 235.355469 2213.824219 549.515625 2360.460938 805.90625 " clip-rule="nonzero"/></clipPath><clipPath id="16257b4615"><path d="M 0 0.0898438 L 2238.5 0.0898438 L 2238.5 1363 L 0 1363 Z M 0 0.0898438 " clip-rule="nonzero"/></clipPath><clipPath id="40748e08fa"><path d="M 2360.460938 805.90625 C 2420.511719 907.925781 2425.410156 1038.398438 2361.933594 1148.1875 C 2268.015625 1310.632812 2060.003906 1366.308594 1897.363281 1272.515625 C 1648.910156 1126.527344 1327.367188 1167.003906 1119.304688 1364.425781 L 1119.160156 1364.425781 C 914.996094 1170.699219 600.402344 1124.53125 343.714844 1271.011719 C 241.589844 1330.984375 110.925781 1335.859375 1 1272.484375 C -161.640625 1178.667969 -217.367188 970.914062 -123.484375 808.476562 C 22.695312 560.394531 -17.855469 239.238281 -215.523438 31.445312 L -215.523438 31.300781 C -21.53125 -172.613281 24.671875 -486.773438 -121.984375 -743.160156 C -182.046875 -845.160156 -186.933594 -975.65625 -123.445312 -1085.429688 C -29.535156 -1247.90625 178.476562 -1303.589844 341.113281 -1209.796875 C 589.5625 -1063.835938 911.105469 -1104.316406 1119.179688 -1301.738281 L 1119.324219 -1301.738281 C 1329.683594 -1102.128906 1646.074219 -1065.289062 1897.386719 -1209.800781 C 2060.023438 -1303.59375 2268.035156 -1247.929688 2361.957031 -1085.476562 C 2425.433594 -975.679688 2420.53125 -845.164062 2360.460938 -743.144531 C 2213.824219 -486.757812 2260.054688 -172.636719 2454.023438 31.28125 L 2454.023438 31.421875 C 2260.027344 235.355469 2213.824219 549.515625 2360.460938 805.90625 " clip-rule="nonzero"/></clipPath><clipPath id="a0e082805e"><rect x="0" width="2239" y="0" height="1365"/></clipPath></defs><g clip-path="url(#96a21a3c72)"><g clip-path="url(#e351e3c503)"><g transform="matrix(1, 0, 0, 1, 0, -0.000000000000095035)"><g clip-path="url(#a0e082805e)"><g clip-path="url(#16257b4615)"><g clip-path="url(#40748e08fa)"><path fill="#131d2f" d="M -215.523438 -1301.738281 L 2454.023438 -1301.738281 L 2454.023438 1362.480469 L -215.523438 1362.480469 Z M -215.523438 -1301.738281 " fill-opacity="1" fill-rule="nonzero"/></g></g></g></g></g></g></svg>